<svg width="60" height="67" viewBox="0 0 60 67" fill="none" xmlns="http://www.w3.org/2000/svg">
<path d="M13.5428 28.8819L15.6306 29.1943L13.5428 28.8819ZM13.5007 29.1943L11.4129 28.8819L13.5007 29.1943ZM42.4257 28.8819L44.5135 28.5694L42.4257 28.8819ZM42.4679 29.1943L40.3802 29.5068L42.4679 29.1943ZM36.4197 55.7998V58.0318C36.979 58.0318 37.5154 57.7966 37.9109 57.3781C38.3064 56.9595 38.5286 56.3918 38.5286 55.7998H36.4197ZM19.5489 55.7998H17.44C17.44 56.3918 17.6622 56.9595 18.0577 57.3781C18.4532 57.7966 18.9896 58.0318 19.5489 58.0318V55.7998ZM16.4067 40.8588L18.0769 39.4928L16.4067 40.8588ZM39.5619 40.8588L37.8917 39.4928L39.5619 40.8588ZM21.6577 66.9598H34.3109V62.4958H21.6577V66.9598ZM11.4509 28.5694L11.4087 28.8819L15.5842 29.5068L15.6264 29.1943L11.4509 28.5694ZM27.9843 13.3918C23.9637 13.3911 20.0779 14.9258 17.0406 17.714C14.0033 20.5022 12.0185 24.3567 11.4509 28.5694L15.6264 29.1943C16.0518 26.0466 17.5358 23.1669 19.806 21.084C22.0761 19.0011 24.9799 17.8549 27.9843 17.8558V13.3918ZM44.5177 28.5694C43.95 24.3567 41.9653 20.5022 38.928 17.714C35.8907 14.9258 32.0049 13.3911 27.9843 13.3918V17.8558C30.9884 17.8558 33.8918 19.0024 36.1617 21.0851C38.4317 23.1678 39.9159 26.047 40.3422 29.1943L44.5177 28.5694ZM44.5599 28.8819L44.5177 28.5694L40.3422 29.1943L40.3844 29.5068L44.5599 28.8819ZM41.2279 42.2248C43.8851 38.5911 45.2263 33.8548 44.5599 28.8774L40.3844 29.5113C40.6259 31.2667 40.53 33.0556 40.1024 34.7708C39.6748 36.486 38.9243 38.0921 37.8959 39.4928L41.2279 42.2248ZM34.3109 48.6574V55.7998H38.5286V48.6619H34.3109V48.6574ZM36.4197 53.5678H19.5489V58.0318H36.4197V53.5678ZM21.6577 55.7998V48.6619H17.44V55.7998H21.6577ZM11.4087 28.8819C11.0881 31.2288 11.2179 33.62 11.7904 35.9126C12.3629 38.2052 13.3663 40.352 14.7407 42.2248L18.0727 39.4928C17.0443 38.0921 16.2938 36.486 15.8662 34.7708C15.4386 33.0556 15.3427 31.2667 15.5842 29.5113L11.4087 28.8774V28.8819ZM21.6577 48.6574C21.6577 44.9835 19.8104 41.8587 18.0727 39.4883L14.7407 42.2203C16.3561 44.43 17.44 46.5415 17.44 48.6574H21.6577ZM37.8959 39.4883C36.154 41.8632 34.3109 44.9835 34.3109 48.6574H38.5286C38.5286 46.5415 39.6125 44.43 41.2279 42.2203L37.8959 39.4883ZM25.8754 -0.000244141V8.92776H30.0932V-0.000244141H25.8754ZM-3.64856 35.7118H4.78687V31.2478H-3.64856V35.7118ZM51.1817 35.7118H59.6171V31.2478H51.1817V35.7118ZM10.4977 16.2755L4.17108 9.57951L1.18494 12.74L7.51151 19.436L10.4977 16.2755ZM48.4571 19.436L54.7836 12.74L51.7975 9.57951L45.4709 16.2755L48.4571 19.436Z" fill="black"/>
</svg>
