<svg width="53" height="36" viewBox="0 0 53 36" fill="none" xmlns="http://www.w3.org/2000/svg">
<g clip-path="url(#clip0_0_189)">
<path d="M24.5004 31.6401H52.8656" stroke="#54A39D" stroke-width="0.5" stroke-miterlimit="10"/>
<path d="M8.74218 33.3296V27.117C8.74218 26.6382 8.3539 26.2516 7.87303 26.2516H2.01003C1.28425 26.2516 0.692871 25.6657 0.692871 24.9401V17.3624C0.692871 16.8717 1.0931 16.4731 1.58591 16.4731H6.42147" stroke="#E09234" stroke-width="3.45" stroke-miterlimit="10" stroke-linecap="round"/>
<path d="M8.74218 33.3296V27.117C8.74218 26.6382 8.3539 26.2516 7.87303 26.2516H2.01003C1.28425 26.2516 0.692871 25.6657 0.692871 24.9401V17.3624C0.692871 16.8717 1.0931 16.4731 1.58591 16.4731H6.42147" stroke="#E09234" stroke-width="3.45" stroke-miterlimit="10" stroke-linecap="round"/>
<path d="M13.1417 9.57617V15.9702C13.1417 16.4639 13.5419 16.8624 14.0378 16.8624H20.071C20.8207 16.8624 21.427 17.4661 21.427 18.2126V26.0133C21.427 26.5189 21.0148 26.9293 20.5071 26.9293H15.5281" stroke="#E09234" stroke-width="3.55" stroke-miterlimit="10" stroke-linecap="round"/>
<path d="M13.1417 9.57617V15.9702C13.1417 16.4639 13.5419 16.8624 14.0378 16.8624H20.071C20.8207 16.8624 21.427 17.4661 21.427 18.2126V26.0133C21.427 26.5189 21.0148 26.9293 20.5071 26.9293H15.5281" stroke="#E09234" stroke-width="3.55" stroke-miterlimit="10" stroke-linecap="round"/>
<path d="M11.6274 35.7949C15.2802 33.0558 15.6954 29.148 12.8371 26.0105C11.5378 24.583 10.0654 23.4112 8.48537 22.4358C4.6892 20.0893 3.17791 16.7614 4.0142 12.6365C4.59363 9.77255 7.29067 7.41419 9.82045 7.55694C6.39464 10.8045 6.3588 14.4417 9.80552 17.3473C11.6155 18.8729 13.6316 20.0685 15.3818 21.6833C16.905 23.093 18.2999 24.6484 18.4163 27.432C18.6075 31.9792 15.794 35.7354 11.6274 35.7919V35.7949Z" fill="url(#paint0_linear_0_189)" stroke="#54A39D" stroke-width="0.25" stroke-miterlimit="10"/>
<path d="M10.6149 3.89893C11.039 4.93684 11.8394 5.37699 12.9386 5.50487C12.2038 6.03424 11.6543 6.74502 11.2929 7.63722C10.7224 6.97402 9.97271 6.44762 9.0498 6.05803C10.1191 5.70116 10.5999 5.02012 10.6119 3.89893H10.6149Z" fill="url(#paint1_linear_0_189)" stroke="#54A39D" stroke-width="0.25" stroke-miterlimit="10"/>
<path d="M13.2671 1.8053C12.6847 1.96589 12.1202 1.91534 11.6334 2.61719C11.7588 1.77853 11.4153 1.32351 11.03 0.803068C11.6871 0.794146 12.3233 0.883365 12.6757 0.157715C12.7862 0.758458 12.5861 1.41571 13.2671 1.8053Z" fill="url(#paint2_linear_0_189)" stroke="#54A39D" stroke-width="0.25" stroke-miterlimit="10"/>
<path d="M14.6112 0.627475L15.2772 0.297363C15.2772 0.297363 15.2981 0.297363 15.3041 0.303311L15.7372 0.74346C15.7969 0.805914 15.8119 0.898107 15.773 0.97543L15.4863 1.51967C15.4863 1.51967 15.4714 1.53454 15.4624 1.53156L15.0174 1.45721C14.8352 1.42747 14.6918 1.28175 14.665 1.09736L14.5992 0.654241C14.5992 0.654241 14.5992 0.633423 14.6112 0.630449V0.627475Z" fill="url(#paint3_linear_0_189)" stroke="#54A39D" stroke-width="0.17" stroke-miterlimit="10"/>
<path d="M27.2781 18.7153V19.2685C27.078 19.322 26.9257 19.4083 26.8211 19.5213C26.7166 19.6343 26.6628 19.7741 26.6628 19.9406C26.6628 20.1072 26.7077 20.241 26.7943 20.3629C26.8809 20.4848 27.0242 20.5979 27.2184 20.7079C27.3528 20.7822 27.6604 20.922 28.1353 21.1302C28.425 21.2551 28.649 21.3681 28.8103 21.4692C28.9686 21.5704 29.121 21.6953 29.2613 21.8469C29.6406 22.2454 29.8318 22.7183 29.8318 23.2655C29.8318 23.6789 29.7302 24.0566 29.5212 24.4016C29.3151 24.7436 29.0313 25.0142 28.6729 25.2105C28.4788 25.3116 28.2667 25.3949 28.0368 25.4544C27.8068 25.5138 27.5917 25.5436 27.3916 25.5436V24.9964C27.6724 24.928 27.8725 24.8358 27.9979 24.7138C28.1234 24.5949 28.1831 24.4313 28.1831 24.2261C28.1831 24.0209 28.0875 23.8217 27.8934 23.6581C27.765 23.551 27.52 23.4202 27.1587 23.2625C26.7614 23.0901 26.4926 22.9651 26.3463 22.8908C26.1999 22.8164 26.0595 22.7302 25.9251 22.6321C25.3188 22.2038 25.0171 21.6298 25.0171 20.9161C25.0171 20.5503 25.0918 20.2142 25.2441 19.9049C25.3965 19.5956 25.6055 19.3458 25.8773 19.1585C26.2537 18.8967 26.7196 18.751 27.2781 18.7213V18.7153ZM27.0272 24.9904V25.5376C26.7644 25.5376 26.4717 25.4633 26.1521 25.3116C26.0326 25.2581 25.952 25.2224 25.9072 25.2046C25.8624 25.1867 25.8176 25.1808 25.7758 25.1808C25.7101 25.1808 25.6623 25.1927 25.6294 25.2135C25.5966 25.2343 25.5458 25.2878 25.4741 25.3711C25.4174 25.4425 25.3547 25.4782 25.286 25.4782C25.1068 25.4782 25.0142 25.3414 25.0142 25.0648V23.3161C25.0142 23.2269 25.041 23.1495 25.0918 23.0871C25.1426 23.0246 25.2083 22.9919 25.286 22.9889C25.3576 22.986 25.4114 23.0068 25.4532 23.0484C25.492 23.093 25.5279 23.1674 25.5577 23.2774C25.6324 23.554 25.7399 23.8098 25.8773 24.0506C26.0177 24.2915 26.182 24.4938 26.3672 24.6603C26.5583 24.8328 26.7763 24.9428 27.0242 24.9934L27.0272 24.9904ZM27.6604 19.2685V18.7391C27.8546 18.751 28.0218 18.7778 28.1622 18.8135C28.3026 18.8492 28.5057 18.9235 28.7655 19.0335C28.8312 19.0603 28.882 19.0722 28.9238 19.0722C28.9836 19.0722 29.0313 19.0514 29.0582 19.0098L29.1658 18.87C29.2165 18.7986 29.2792 18.7629 29.3539 18.7629C29.4405 18.7629 29.5033 18.7956 29.5451 18.8581C29.5869 18.9205 29.6048 19.0187 29.6048 19.1525V20.7376C29.6048 20.8298 29.5779 20.9072 29.5242 20.9666C29.4704 21.0261 29.4017 21.0559 29.3181 21.0559C29.2524 21.0559 29.1926 21.035 29.1389 20.9934C29.109 20.9666 29.0851 20.9369 29.0702 20.8982C29.0523 20.8625 29.0343 20.8001 29.0194 20.7138C28.9836 20.5562 28.9238 20.3956 28.8372 20.2291C28.7506 20.0625 28.649 19.9138 28.5326 19.783C28.2996 19.5243 28.0099 19.3518 27.6574 19.2685H27.6604Z" fill="#D6D6D6"/>
<path d="M32.0749 18.8434H33.3443V19.4262C33.1919 19.5125 33.0755 19.6225 32.9918 19.7593C32.8544 19.9764 32.7589 20.2352 32.7111 20.5326L32.6633 20.827C32.6483 20.9192 32.6125 20.9935 32.5587 21.0471C32.505 21.1006 32.4393 21.1274 32.3586 21.1274C32.278 21.1274 32.2063 21.0976 32.1525 21.0411C32.0988 20.9846 32.0719 20.9073 32.0719 20.8151V18.8493L32.0749 18.8434ZM35.88 18.8434V24.4939C35.88 24.6188 35.9039 24.708 35.9517 24.7645C35.9786 24.7973 36.0025 24.8151 36.0234 24.824C36.0473 24.8329 36.119 24.8508 36.2444 24.8835C36.3997 24.9192 36.4774 25.0084 36.4774 25.1482C36.4774 25.2315 36.4356 25.2999 36.3519 25.3504C36.2922 25.3891 36.1877 25.4069 36.0443 25.4069H33.5713C33.4309 25.4069 33.3234 25.3861 33.2487 25.3415C33.177 25.2969 33.1412 25.2344 33.1412 25.1452C33.1412 25.0054 33.2188 24.9162 33.3741 24.8805C33.4996 24.8478 33.5742 24.827 33.5951 24.821C33.619 24.8121 33.6399 24.7943 33.6638 24.7616C33.7116 24.708 33.7355 24.6158 33.7355 24.4909V18.8404H35.88V18.8434ZM37.5496 18.8434V20.8091C37.5496 20.9013 37.5227 20.9787 37.469 21.0352C37.4152 21.0917 37.3465 21.1214 37.2629 21.1214C37.1793 21.1214 37.1165 21.0947 37.0628 21.0411C37.009 20.9876 36.9762 20.9162 36.9582 20.821L36.9104 20.5266C36.8627 20.2292 36.7701 19.9705 36.6297 19.7534C36.5431 19.6196 36.4266 19.5095 36.2773 19.4203V18.8374H37.5466L37.5496 18.8434Z" fill="#D6D6D6"/>
<path d="M41.0322 20.0656L41.2771 21.0618L40.4229 24.1667C40.396 24.2559 40.3841 24.3392 40.3841 24.4165C40.3841 24.6187 40.4796 24.7615 40.6678 24.8507L40.8381 24.928C40.9456 24.9756 40.9963 25.0559 40.9963 25.1689C40.9963 25.3295 40.8799 25.4098 40.6439 25.4098H39.4164C39.2969 25.4098 39.2043 25.386 39.1326 25.3355C39.0639 25.2849 39.0281 25.2165 39.0281 25.1303C39.0281 25.0381 39.0998 24.9607 39.2401 24.8983C39.3716 24.8418 39.4701 24.7882 39.5328 24.7407C39.5956 24.6931 39.6553 24.6306 39.715 24.5503C39.8046 24.4195 39.8793 24.244 39.9361 24.0269L41.0262 20.0656H41.0322ZM41.3667 18.8433H43.3141L44.6551 24.4938C44.682 24.592 44.7089 24.6812 44.7417 24.7585C44.7716 24.821 44.8343 24.8685 44.9359 24.9072C45.0195 24.9429 45.0763 24.9786 45.1091 25.0143C45.142 25.05 45.1569 25.0975 45.1569 25.16C45.1569 25.3265 45.0315 25.4098 44.7806 25.4098H42.3703C42.2747 25.4098 42.197 25.386 42.1373 25.3414C42.0805 25.2938 42.0507 25.2343 42.0507 25.157C42.0507 25.0916 42.0626 25.044 42.0895 25.0113C42.1164 24.9786 42.1731 24.9399 42.2627 24.8923C42.3284 24.8596 42.3732 24.8239 42.3971 24.7853C42.424 24.7466 42.436 24.699 42.436 24.6395C42.436 24.586 42.43 24.5384 42.421 24.4968L42.2657 23.8009H40.9187L41.0501 23.2299H42.1313L41.2442 19.3221L41.3637 18.8522L41.3667 18.8433Z" fill="#D6D6D6"/>
<path d="M49.0815 18.8433V24.4938C49.0815 24.6187 49.1054 24.7079 49.1531 24.7644C49.18 24.7972 49.2039 24.815 49.2248 24.8239C49.2487 24.8329 49.3204 24.8507 49.4458 24.8834C49.6012 24.9191 49.6788 25.0083 49.6788 25.1481C49.6788 25.2314 49.637 25.2998 49.5534 25.3503C49.4906 25.389 49.3921 25.4068 49.2487 25.4068H46.8055C46.6891 25.4068 46.5995 25.386 46.5367 25.3414C46.474 25.2968 46.4412 25.2373 46.4412 25.157C46.4412 25.0262 46.5069 24.9399 46.6353 24.8983C46.7428 24.8626 46.8026 24.8418 46.8205 24.8329C46.8384 24.8239 46.8563 24.8061 46.8772 24.7763C46.9161 24.7258 46.934 24.6425 46.934 24.5325V19.7206C46.934 19.6076 46.9161 19.5273 46.8772 19.4737C46.8563 19.444 46.8384 19.4262 46.8205 19.4172C46.8026 19.4083 46.7398 19.3875 46.6353 19.3518C46.5069 19.3102 46.4412 19.2239 46.4412 19.0931C46.4412 19.0128 46.474 18.9503 46.5367 18.9087C46.5995 18.8671 46.6891 18.8433 46.8055 18.8433H49.0815ZM50.5629 22.189C50.8586 22.2336 51.0856 22.2842 51.2469 22.3377C51.4052 22.3912 51.5515 22.4656 51.6799 22.5578C51.8143 22.6559 51.9189 22.7749 51.9906 22.9146C52.0622 23.0514 52.0981 23.1972 52.0981 23.3518V24.3481C52.0981 24.4492 52.1309 24.5027 52.1996 24.5027C52.2265 24.5027 52.2474 24.4968 52.2653 24.4819C52.2833 24.4671 52.3072 24.4403 52.34 24.3987C52.4207 24.2886 52.5013 24.2351 52.5849 24.2351C52.6387 24.2351 52.6954 24.2648 52.7492 24.3213C52.803 24.3778 52.8328 24.4373 52.8328 24.4938C52.8328 24.592 52.785 24.7139 52.6895 24.8566C52.5939 24.9994 52.4774 25.1273 52.334 25.2403C52.2026 25.3474 52.0593 25.4217 51.9039 25.4693C51.7486 25.5169 51.5664 25.5377 51.3574 25.5377C50.9332 25.5377 50.6017 25.4158 50.3628 25.1749C50.1238 24.934 50.0044 24.5949 50.0044 24.1637V23.3548C50.0044 23.1763 50.0044 23.0723 49.9984 23.0425C49.9835 22.9146 49.9357 22.8046 49.864 22.7094C49.7714 22.5964 49.637 22.531 49.4638 22.5131V21.9987C49.637 21.9719 49.7624 21.9273 49.8371 21.8648C49.8998 21.8083 49.9446 21.7399 49.9685 21.6685C49.9924 21.5942 50.0044 21.4871 50.0044 21.3414V20.0685C50.0044 19.8663 49.9655 19.7146 49.8849 19.6165C49.8072 19.5184 49.6639 19.4381 49.4578 19.3816V18.8492H49.5832C49.9416 18.8492 50.2433 18.8611 50.4972 18.8879C50.8705 18.9236 51.205 19.0455 51.4977 19.2537C51.9189 19.5511 52.1309 19.9763 52.1309 20.5265C52.1309 20.9786 51.9906 21.3474 51.7068 21.6388C51.5873 21.7607 51.45 21.8589 51.2887 21.9362C51.1304 22.0135 50.8884 22.0998 50.5629 22.1949V22.189Z" fill="#D6D6D6"/>
<path d="M26.9466 18.7153V19.2685C26.7465 19.322 26.5941 19.4083 26.4896 19.5213C26.3851 19.6343 26.3313 19.7741 26.3313 19.9406C26.3313 20.1072 26.3761 20.241 26.4627 20.3629C26.5493 20.4848 26.6927 20.5979 26.8868 20.7079C27.0212 20.7822 27.3289 20.922 27.8038 21.1302C28.0935 21.2551 28.3175 21.3681 28.4788 21.4692C28.6371 21.5704 28.7894 21.6953 28.9298 21.8469C29.3091 22.2454 29.5003 22.7183 29.5003 23.2655C29.5003 23.6789 29.3987 24.0566 29.1896 24.4016C28.9835 24.7436 28.6998 25.0142 28.3414 25.2105C28.1473 25.3116 27.9352 25.3949 27.7052 25.4544C27.4752 25.5138 27.2602 25.5436 27.0601 25.5436V24.9964C27.3408 24.928 27.5409 24.8358 27.6664 24.7138C27.7918 24.5919 27.8516 24.4313 27.8516 24.2261C27.8516 24.0209 27.756 23.8217 27.5619 23.6581C27.4334 23.551 27.1885 23.4202 26.8271 23.2625C26.4299 23.0901 26.1611 22.9651 26.0147 22.8908C25.8684 22.8164 25.728 22.7302 25.5936 22.6321C24.9873 22.2038 24.6856 21.6298 24.6856 20.9161C24.6856 20.5503 24.7603 20.2142 24.9126 19.9049C25.0649 19.5956 25.274 19.3458 25.5458 19.1585C25.9221 18.8967 26.3881 18.751 26.9466 18.7213V18.7153ZM26.6957 24.9904V25.5376C26.4329 25.5376 26.1402 25.4633 25.8206 25.3116C25.7011 25.2581 25.6205 25.2224 25.5757 25.2046C25.5309 25.1867 25.4861 25.1808 25.4442 25.1808C25.3785 25.1808 25.3307 25.1927 25.2979 25.2135C25.265 25.2343 25.2143 25.2878 25.1426 25.3711C25.0858 25.4425 25.0231 25.4782 24.9544 25.4782C24.7752 25.4782 24.6826 25.3414 24.6826 25.0648V23.3161C24.6826 23.2269 24.7095 23.1495 24.7603 23.0871C24.811 23.0246 24.8768 22.9919 24.9544 22.9889C25.0261 22.986 25.0799 23.0068 25.1217 23.0484C25.1605 23.093 25.1963 23.1674 25.2262 23.2774C25.3009 23.554 25.4084 23.8098 25.5458 24.0506C25.6862 24.2915 25.8504 24.4938 26.0356 24.6603C26.2268 24.8328 26.4448 24.9428 26.6927 24.9934L26.6957 24.9904ZM27.3289 19.2685V18.7391C27.523 18.751 27.6903 18.7778 27.8307 18.8135C27.971 18.8492 28.1741 18.9235 28.434 19.0335C28.4997 19.0603 28.5505 19.0722 28.5923 19.0722C28.652 19.0722 28.6998 19.0514 28.7267 19.0098L28.8342 18.87C28.885 18.7986 28.9477 18.7629 29.0224 18.7629C29.109 18.7629 29.1717 18.7956 29.2135 18.8581C29.2553 18.9205 29.2733 19.0187 29.2733 19.1525V20.7376C29.2733 20.8298 29.2464 20.9072 29.1926 20.9666C29.1389 21.0261 29.0702 21.0559 28.9865 21.0559C28.9208 21.0559 28.8611 21.035 28.8073 20.9934C28.7775 20.9666 28.7536 20.9369 28.7386 20.8982C28.7207 20.8625 28.7028 20.8001 28.6879 20.7138C28.652 20.5562 28.5923 20.3956 28.5057 20.2291C28.4191 20.0625 28.3175 19.9138 28.201 19.783C27.968 19.5243 27.6783 19.3518 27.3259 19.2685H27.3289Z" fill="#487A75"/>
<path d="M31.7433 18.8434H33.0127V19.4262C32.8604 19.5125 32.7439 19.6225 32.6603 19.7593C32.5229 19.9764 32.4273 20.2352 32.3795 20.5326L32.3317 20.827C32.3168 20.9192 32.281 20.9935 32.2272 21.0471C32.1734 21.1006 32.1077 21.1274 32.0271 21.1274C31.9464 21.1274 31.8748 21.0976 31.821 21.0411C31.7672 20.9846 31.7404 20.9073 31.7404 20.8151V18.8493L31.7433 18.8434ZM35.5485 18.8434V24.4939C35.5485 24.6188 35.5724 24.708 35.6202 24.7645C35.647 24.7973 35.6709 24.8151 35.6918 24.824C35.7157 24.8329 35.7874 24.8508 35.9129 24.8835C36.0682 24.9192 36.1458 25.0084 36.1458 25.1482C36.1458 25.2315 36.104 25.2999 36.0204 25.3504C35.9606 25.3891 35.8561 25.4069 35.7127 25.4069H33.2397C33.0993 25.4069 32.9918 25.3861 32.9171 25.3415C32.8455 25.2969 32.8096 25.2344 32.8096 25.1452C32.8096 25.0054 32.8873 24.9162 33.0426 24.8805C33.168 24.8478 33.2427 24.827 33.2636 24.821C33.2875 24.8121 33.3084 24.7943 33.3323 24.7616C33.3801 24.708 33.404 24.6158 33.404 24.4909V18.8404H35.5485V18.8434ZM37.2181 18.8434V20.8091C37.2181 20.9013 37.1912 20.9787 37.1374 21.0352C37.0837 21.0917 37.015 21.1214 36.9313 21.1214C36.8477 21.1214 36.785 21.0947 36.7312 21.0411C36.6775 20.9876 36.6446 20.9162 36.6267 20.821L36.5789 20.5266C36.5311 20.2292 36.4385 19.9705 36.2981 19.7534C36.2115 19.6196 36.095 19.5095 35.9457 19.4203V18.8374H37.2151L37.2181 18.8434Z" fill="#DD8F3A"/>
<path d="M31.7433 18.8434H33.0127V19.4262C32.8604 19.5125 32.7439 19.6225 32.6603 19.7593C32.5229 19.9764 32.4273 20.2352 32.3795 20.5326L32.3317 20.827C32.3168 20.9192 32.281 20.9935 32.2272 21.0471C32.1734 21.1006 32.1077 21.1274 32.0271 21.1274C31.9464 21.1274 31.8748 21.0976 31.821 21.0411C31.7672 20.9846 31.7404 20.9073 31.7404 20.8151V18.8493L31.7433 18.8434ZM35.5485 18.8434V24.4939C35.5485 24.6188 35.5724 24.708 35.6202 24.7645C35.647 24.7973 35.6709 24.8151 35.6918 24.824C35.7157 24.8329 35.7874 24.8508 35.9129 24.8835C36.0682 24.9192 36.1458 25.0084 36.1458 25.1482C36.1458 25.2315 36.104 25.2999 36.0204 25.3504C35.9606 25.3891 35.8561 25.4069 35.7127 25.4069H33.2397C33.0993 25.4069 32.9918 25.3861 32.9171 25.3415C32.8455 25.2969 32.8096 25.2344 32.8096 25.1452C32.8096 25.0054 32.8873 24.9162 33.0426 24.8805C33.168 24.8478 33.2427 24.827 33.2636 24.821C33.2875 24.8121 33.3084 24.7943 33.3323 24.7616C33.3801 24.708 33.404 24.6158 33.404 24.4909V18.8404H35.5485V18.8434ZM37.2181 18.8434V20.8091C37.2181 20.9013 37.1912 20.9787 37.1374 21.0352C37.0837 21.0917 37.015 21.1214 36.9313 21.1214C36.8477 21.1214 36.785 21.0947 36.7312 21.0411C36.6775 20.9876 36.6446 20.9162 36.6267 20.821L36.5789 20.5266C36.5311 20.2292 36.4385 19.9705 36.2981 19.7534C36.2115 19.6196 36.095 19.5095 35.9457 19.4203V18.8374H37.2151L37.2181 18.8434Z" stroke="#666666" stroke-width="0.2" stroke-miterlimit="10"/>
<path d="M40.7006 20.0656L40.9456 21.0618L40.0913 24.1667C40.0645 24.2559 40.0525 24.3392 40.0525 24.4165C40.0525 24.6187 40.1481 24.7615 40.3363 24.8507L40.5065 24.928C40.614 24.9756 40.6648 25.0559 40.6648 25.1689C40.6648 25.3295 40.5483 25.4098 40.3124 25.4098H39.0848C38.9653 25.4098 38.8728 25.386 38.8011 25.3355C38.7324 25.2849 38.6965 25.2165 38.6965 25.1303C38.6965 25.0381 38.7682 24.9607 38.9086 24.8983C39.04 24.8418 39.1386 24.7882 39.2013 24.7407C39.264 24.6931 39.3238 24.6306 39.3835 24.5503C39.4731 24.4195 39.5478 24.244 39.6045 24.0269L40.6947 20.0656H40.7006ZM41.0352 18.8433H42.9825L44.3236 24.4938C44.3505 24.592 44.3773 24.6812 44.4102 24.7585C44.4401 24.821 44.5028 24.8685 44.6043 24.9072C44.688 24.9429 44.7447 24.9786 44.7776 25.0143C44.8104 25.05 44.8254 25.0975 44.8254 25.16C44.8254 25.3265 44.6999 25.4098 44.449 25.4098H42.0387C41.9431 25.4098 41.8655 25.386 41.8057 25.3414C41.749 25.2938 41.7191 25.2343 41.7191 25.157C41.7191 25.0916 41.7311 25.044 41.758 25.0113C41.7848 24.9786 41.8416 24.9399 41.9312 24.8923C41.9969 24.8596 42.0417 24.8239 42.0656 24.7853C42.0925 24.7466 42.1044 24.699 42.1044 24.6395C42.1044 24.586 42.0984 24.5384 42.0895 24.4968L41.9342 23.8009H40.5872L40.7186 23.2299H41.7998L40.9127 19.3221L41.0322 18.8522L41.0352 18.8433Z" fill="#487A75"/>
<path d="M48.7499 18.8433V24.4938C48.7499 24.6187 48.7738 24.7079 48.8216 24.7644C48.8485 24.7972 48.8724 24.815 48.8933 24.8239C48.9172 24.8329 48.9889 24.8507 49.1143 24.8834C49.2696 24.9191 49.3473 25.0083 49.3473 25.1481C49.3473 25.2314 49.3054 25.2998 49.2218 25.3503C49.1591 25.389 49.0605 25.4068 48.9172 25.4068H46.474C46.3575 25.4068 46.2679 25.386 46.2052 25.3414C46.1425 25.2968 46.1096 25.2373 46.1096 25.157C46.1096 25.0262 46.1753 24.9399 46.3038 24.8983C46.4113 24.8626 46.471 24.8418 46.4889 24.8329C46.5069 24.8239 46.5248 24.8061 46.5457 24.7763C46.5845 24.7258 46.6024 24.6425 46.6024 24.5325V19.7206C46.6024 19.6076 46.5845 19.5273 46.5457 19.4737C46.5248 19.444 46.5069 19.4262 46.4889 19.4172C46.471 19.4083 46.4083 19.3875 46.3038 19.3518C46.1753 19.3102 46.1096 19.2239 46.1096 19.0931C46.1096 19.0128 46.1425 18.9503 46.2052 18.9087C46.2679 18.8671 46.3575 18.8433 46.474 18.8433H48.7499ZM50.2313 22.189C50.527 22.2336 50.754 22.2842 50.9153 22.3377C51.0736 22.3912 51.22 22.4656 51.3484 22.5578C51.4828 22.6559 51.5873 22.7749 51.659 22.9146C51.7307 23.0514 51.7665 23.1972 51.7665 23.3518V24.3481C51.7665 24.4492 51.7994 24.5027 51.8681 24.5027C51.895 24.5027 51.9159 24.4968 51.9338 24.4819C51.9517 24.4671 51.9756 24.4403 52.0085 24.3987C52.0891 24.2886 52.1697 24.2351 52.2534 24.2351C52.3071 24.2351 52.3639 24.2648 52.4176 24.3213C52.4714 24.3778 52.5013 24.4373 52.5013 24.4938C52.5013 24.592 52.4535 24.7139 52.3579 24.8566C52.2623 24.9994 52.1459 25.1273 52.0025 25.2403C51.8711 25.3474 51.7277 25.4217 51.5724 25.4693C51.4171 25.5169 51.2349 25.5377 51.0258 25.5377C50.6017 25.5377 50.2702 25.4158 50.0312 25.1749C49.7923 24.934 49.6728 24.5949 49.6728 24.1637V23.3548C49.6728 23.1763 49.6728 23.0723 49.6668 23.0425C49.6519 22.9146 49.6041 22.8046 49.5324 22.7094C49.4399 22.5964 49.3054 22.531 49.1322 22.5131V21.9987C49.3054 21.9719 49.4309 21.9273 49.5056 21.8648C49.5683 21.8083 49.6131 21.7399 49.637 21.6685C49.6609 21.5942 49.6728 21.4871 49.6728 21.3414V20.0685C49.6728 19.8663 49.634 19.7146 49.5533 19.6165C49.4757 19.5184 49.3323 19.4381 49.1262 19.3816V18.8492H49.2517C49.6101 18.8492 49.9118 18.8611 50.1656 18.8879C50.539 18.9236 50.8735 19.0455 51.1662 19.2537C51.5873 19.5511 51.7994 19.9763 51.7994 20.5265C51.7994 20.9786 51.659 21.3474 51.3753 21.6388C51.2558 21.7607 51.1184 21.8589 50.9571 21.9362C50.7988 22.0135 50.5569 22.0998 50.2313 22.1949V22.189Z" fill="#487A75"/>
<path d="M25.9161 29.457H25.2859L25.1544 29.8912C25.1365 29.9478 25.1276 29.9834 25.1276 30.0013C25.1276 30.034 25.1425 30.0608 25.1724 30.0816C25.2022 30.1024 25.2351 30.1113 25.2739 30.1113L25.2321 30.2481H24.4764L24.5183 30.1113C24.572 30.1113 24.6138 30.0994 24.6467 30.0786C24.6795 30.0578 24.7094 30.0013 24.7363 29.9121L25.0439 28.9128C25.0529 28.886 25.0559 28.8652 25.0559 28.8504C25.0559 28.8117 25.0409 28.7849 25.0111 28.7641C24.9812 28.7433 24.9513 28.7373 24.9215 28.7373L24.9633 28.6035H25.7398L25.701 28.7373C25.6174 28.7373 25.5606 28.7492 25.5308 28.773C25.5009 28.7968 25.477 28.8414 25.4591 28.9069L25.3336 29.3113H25.9668L26.0863 28.9128C26.0953 28.8831 26.0982 28.8623 26.0982 28.8504C26.0982 28.8147 26.0833 28.7849 26.0535 28.7671C26.0236 28.7492 25.9907 28.7373 25.9609 28.7373L26.0027 28.6035H26.7524L26.7105 28.7373C26.6538 28.7373 26.609 28.7463 26.5791 28.7671C26.5493 28.7879 26.5224 28.8325 26.5015 28.9009L26.1968 29.8912C26.1789 29.9478 26.1699 29.9834 26.1699 29.9983C26.1699 30.031 26.1849 30.0578 26.2117 30.0786C26.2386 30.0994 26.2775 30.1113 26.3223 30.1113L26.2804 30.2481H25.489L25.5308 30.1113C25.6114 30.1113 25.6682 30.0965 25.695 30.0697C25.7249 30.0429 25.7518 29.9894 25.7757 29.9091L25.9131 29.457H25.9161Z" fill="#595959"/>
<path d="M26.9853 29.8706C26.9793 29.8974 26.9733 29.9212 26.9733 29.945C26.9733 30.0074 26.9882 30.058 27.0151 30.0877C27.042 30.1204 27.0838 30.1353 27.1406 30.1353C27.1973 30.1353 27.2541 30.1204 27.3108 30.0877C27.3676 30.055 27.4273 30.0074 27.487 29.945H27.6483C27.5826 30.0401 27.493 30.1204 27.3765 30.1859C27.26 30.2513 27.1346 30.284 26.9972 30.284C26.8807 30.284 26.7822 30.2572 26.7075 30.2067C26.6328 30.1561 26.594 30.0758 26.594 29.9658C26.594 29.7903 26.6806 29.6208 26.8538 29.4572C27.0271 29.2937 27.2182 29.2134 27.4243 29.2134C27.5139 29.2134 27.5826 29.2312 27.6274 29.2639C27.6722 29.2966 27.6931 29.3472 27.6931 29.4126C27.6931 29.5167 27.6274 29.6119 27.496 29.6981C27.3646 29.7814 27.1943 29.8409 26.9793 29.8706H26.9853ZM27.0121 29.7427C27.1107 29.7279 27.2003 29.6862 27.278 29.6149C27.3556 29.5435 27.3944 29.4751 27.3944 29.4067C27.3944 29.3829 27.3885 29.3621 27.3765 29.3502C27.3646 29.3383 27.3467 29.3323 27.3228 29.3323C27.266 29.3323 27.2093 29.368 27.1525 29.4424C27.0988 29.5167 27.051 29.6149 27.0121 29.7427Z" fill="#595959"/>
<path d="M28.4906 30.0131C28.3502 30.1945 28.2128 30.2837 28.0784 30.2837C28.0187 30.2837 27.9649 30.2629 27.9201 30.2183C27.8753 30.1737 27.8514 30.1053 27.8514 30.0101C27.8514 29.8228 27.9171 29.6473 28.0516 29.4808C28.183 29.3142 28.3353 29.231 28.5055 29.231C28.5593 29.231 28.5981 29.2458 28.628 29.2756C28.6579 29.3053 28.6758 29.3469 28.6818 29.4064L28.7236 29.2577H29.073L28.855 29.9715C28.843 30.0161 28.8341 30.0429 28.8341 30.0488C28.8341 30.0726 28.846 30.0815 28.8669 30.0815C28.9088 30.0815 28.9506 30.0458 28.9924 29.9715H29.1268C29.0909 30.0696 29.0312 30.1469 28.9536 30.2034C28.8759 30.26 28.7923 30.2897 28.6997 30.2897C28.6399 30.2897 28.5862 30.2748 28.5474 30.2421C28.5055 30.2094 28.4846 30.1588 28.4846 30.0875C28.4846 30.0696 28.4846 30.0458 28.4936 30.0191L28.4906 30.0131ZM28.2188 29.9536C28.2188 29.9863 28.2248 30.0101 28.2367 30.028C28.2487 30.0458 28.2666 30.0518 28.2905 30.0518C28.3263 30.0518 28.3681 30.028 28.4189 29.9774C28.4667 29.9269 28.5145 29.8436 28.5593 29.7217C28.6041 29.6027 28.628 29.5135 28.628 29.46C28.628 29.4243 28.622 29.3975 28.6101 29.3797C28.5981 29.3618 28.5772 29.3529 28.5503 29.3529C28.4667 29.3529 28.392 29.4332 28.3233 29.5908C28.2547 29.7484 28.2188 29.8704 28.2188 29.9566V29.9536Z" fill="#595959"/>
<path d="M29.8138 29.9597H29.9392C29.9034 30.0489 29.8406 30.1262 29.76 30.1887C29.6794 30.2511 29.5838 30.2839 29.4763 30.2839C29.4046 30.2839 29.3508 30.269 29.309 30.2363C29.2702 30.2065 29.2493 30.1619 29.2493 30.1084C29.2493 30.0876 29.2642 30.0192 29.2971 29.9062L29.6107 28.8831C29.6256 28.8355 29.6316 28.8058 29.6316 28.7909C29.6316 28.7493 29.5838 28.7255 29.4852 28.7255L29.524 28.6006C29.7242 28.6006 29.8675 28.5887 29.9541 28.5679H30.0706L29.6375 29.9805C29.6256 30.0221 29.6166 30.0489 29.6166 30.0608C29.6166 30.0876 29.6316 30.0995 29.6614 30.0995C29.7092 30.0995 29.76 30.0549 29.8108 29.9627L29.8138 29.9597Z" fill="#595959"/>
<path d="M30.6919 29.9034H30.8263C30.7905 29.9986 30.7337 30.0848 30.6501 30.1651C30.5665 30.2454 30.4709 30.2841 30.3604 30.2841C30.2917 30.2841 30.2319 30.2662 30.1871 30.2276C30.1393 30.1919 30.1184 30.1294 30.1184 30.0462C30.1184 29.9926 30.1364 29.9123 30.1722 29.8053L30.3006 29.383H30.0975L30.1394 29.2491H30.3424L30.4559 28.8804H30.8173L30.7038 29.2491H30.9249L30.8831 29.383H30.662L30.5097 29.8767C30.4828 29.9688 30.4679 30.0254 30.4679 30.0462C30.4679 30.064 30.4709 30.0759 30.4798 30.0848C30.4888 30.0938 30.4978 30.0967 30.5157 30.0967C30.5754 30.0967 30.6352 30.0313 30.6949 29.8975L30.6919 29.9034Z" fill="#595959"/>
<path d="M30.9159 30.2452L31.34 28.8623C31.349 28.8296 31.3549 28.8058 31.3549 28.791C31.3549 28.7493 31.3042 28.7255 31.2056 28.7255L31.2474 28.6006C31.3759 28.6006 31.4625 28.6006 31.5073 28.5947C31.5521 28.5917 31.6088 28.5828 31.6745 28.5649H31.791L31.4923 29.5345C31.6447 29.3174 31.8119 29.2103 31.9941 29.2103C32.0628 29.2103 32.1106 29.2252 32.1464 29.2579C32.1793 29.2876 32.1972 29.3293 32.1972 29.3768C32.1972 29.4006 32.1942 29.4274 32.1853 29.4601C32.1763 29.4928 32.1315 29.6445 32.0509 29.9181C32.03 29.9865 32.018 30.0281 32.018 30.0371C32.018 30.0579 32.027 30.0698 32.0479 30.0698C32.0658 30.0698 32.0897 30.0579 32.1136 30.0371C32.1375 30.0133 32.1644 29.9806 32.1942 29.9359H32.3346C32.2838 30.0371 32.2151 30.1174 32.1345 30.1739C32.0538 30.2304 31.9613 30.2631 31.8657 30.2631C31.7223 30.2631 31.6536 30.2066 31.6536 30.0906C31.6536 30.043 31.6865 29.9181 31.7552 29.7129C31.791 29.5999 31.8119 29.5315 31.8119 29.5077C31.8119 29.472 31.797 29.4542 31.7641 29.4542C31.7134 29.4542 31.6476 29.5107 31.567 29.6237C31.4894 29.7367 31.4147 29.8675 31.349 30.0192L31.2803 30.2423H30.9189L30.9159 30.2452Z" fill="#595959"/>
<path d="M33.3322 29.948H33.4935C33.4128 30.061 33.3202 30.1443 33.2157 30.2008C33.1112 30.2573 32.9977 30.2841 32.8722 30.2841C32.7318 30.2841 32.6243 30.2543 32.5497 30.1978C32.475 30.1413 32.4362 30.058 32.4362 29.948C32.4362 29.829 32.475 29.7101 32.5526 29.5941C32.6303 29.4781 32.7259 29.3859 32.8453 29.3145C32.9618 29.2461 33.0843 29.2104 33.2127 29.2104C33.3232 29.2104 33.4039 29.2342 33.4576 29.2818C33.5084 29.3294 33.5353 29.3859 33.5353 29.4543C33.5353 29.5049 33.5204 29.5495 33.4935 29.5881C33.4636 29.6268 33.4248 29.6446 33.371 29.6446C33.3352 29.6446 33.3023 29.6328 33.2725 29.609C33.2426 29.5852 33.2276 29.5495 33.2276 29.5019C33.2276 29.4811 33.2306 29.4573 33.2396 29.4365C33.2456 29.4157 33.2486 29.4008 33.2486 29.3919C33.2486 29.371 33.2426 29.3591 33.2276 29.3473C33.2127 29.3383 33.1918 29.3324 33.1619 29.3324C33.1112 29.3324 33.0634 29.3562 33.0156 29.4038C32.9678 29.4513 32.923 29.5376 32.8812 29.6595C32.8394 29.7815 32.8185 29.8736 32.8185 29.9391C32.8185 30.0045 32.8334 30.0521 32.8603 30.0848C32.8872 30.1175 32.929 30.1324 32.9857 30.1324C33.0425 30.1324 33.1022 30.1175 33.159 30.0848C33.2157 30.0521 33.2754 30.0075 33.3352 29.942L33.3322 29.948Z" fill="#595959"/>
<path d="M34.3088 30.0131C34.1685 30.1945 34.0311 30.2837 33.8967 30.2837C33.8369 30.2837 33.7862 30.2629 33.7384 30.2183C33.6936 30.1737 33.6697 30.1053 33.6697 30.0101C33.6697 29.8228 33.7354 29.6473 33.8698 29.4808C34.0012 29.3142 34.1535 29.231 34.3238 29.231C34.3775 29.231 34.4164 29.2458 34.4462 29.2756C34.4761 29.3053 34.494 29.3469 34.5 29.4064L34.5418 29.2577H34.8913L34.6732 29.9715C34.6583 30.0161 34.6523 30.0429 34.6523 30.0488C34.6523 30.0726 34.6643 30.0815 34.6852 30.0815C34.727 30.0815 34.7688 30.0458 34.8106 29.9715H34.945C34.9062 30.0696 34.8494 30.1469 34.7718 30.2034C34.6941 30.26 34.6075 30.2897 34.5179 30.2897C34.4582 30.2897 34.4044 30.2748 34.3656 30.2421C34.3238 30.2094 34.3029 30.1588 34.3029 30.0875C34.3029 30.0696 34.3029 30.0458 34.3118 30.0191L34.3088 30.0131ZM34.037 29.9536C34.037 29.9863 34.043 30.0101 34.055 30.028C34.0669 30.0458 34.0848 30.0518 34.1087 30.0518C34.1446 30.0518 34.1864 30.028 34.2372 29.9774C34.2849 29.9269 34.3327 29.8436 34.3775 29.7217C34.4223 29.6027 34.4462 29.5135 34.4462 29.46C34.4462 29.4243 34.4403 29.3975 34.4253 29.3797C34.4134 29.3618 34.3925 29.3529 34.3656 29.3529C34.282 29.3529 34.2073 29.4332 34.1386 29.5908C34.0699 29.7484 34.0341 29.8704 34.0341 29.9566L34.037 29.9536Z" fill="#595959"/>
<path d="M35.0944 30.2453L35.3094 29.5465C35.3243 29.4989 35.3303 29.4662 35.3303 29.4453C35.3303 29.4216 35.3184 29.4067 35.2915 29.4067C35.2347 29.4067 35.175 29.4632 35.1123 29.5732H34.9988C35.0645 29.4513 35.1451 29.3621 35.2347 29.3026C35.3243 29.2431 35.411 29.2134 35.4976 29.2134C35.5483 29.2134 35.5872 29.2282 35.6141 29.261C35.6409 29.2937 35.6559 29.3323 35.6559 29.3829C35.6559 29.4364 35.632 29.5465 35.5872 29.71C35.7694 29.3799 35.9306 29.2134 36.068 29.2134C36.1099 29.2134 36.1427 29.2253 36.1696 29.252C36.1965 29.2788 36.2114 29.3145 36.2114 29.3621C36.2114 29.4186 36.1965 29.4691 36.1636 29.5137C36.1308 29.5584 36.0919 29.5822 36.0441 29.5822C36.0023 29.5822 35.9695 29.5643 35.9486 29.5316C35.9306 29.5078 35.9157 29.4929 35.8978 29.4929C35.841 29.4929 35.7664 29.5822 35.6678 29.7576C35.5722 29.9331 35.5035 30.0966 35.4617 30.2453H35.0944Z" fill="#595959"/>
<path d="M36.5251 29.8706C36.5191 29.8974 36.5131 29.9212 36.5131 29.945C36.5131 30.0074 36.528 30.058 36.5549 30.0877C36.5818 30.1204 36.6236 30.1353 36.6804 30.1353C36.7371 30.1353 36.7939 30.1204 36.8506 30.0877C36.9074 30.055 36.9671 30.0074 37.0268 29.945H37.1881C37.1224 30.0401 37.0328 30.1204 36.9163 30.1859C36.7998 30.2513 36.6744 30.284 36.537 30.284C36.4205 30.284 36.322 30.2572 36.2473 30.2067C36.1726 30.1561 36.1338 30.0758 36.1338 29.9658C36.1338 29.7903 36.2204 29.6208 36.3936 29.4572C36.5669 29.2967 36.758 29.2134 36.9641 29.2134C37.0537 29.2134 37.1224 29.2312 37.1672 29.2639C37.212 29.2966 37.2329 29.3472 37.2329 29.4126C37.2329 29.5167 37.1672 29.6119 37.0358 29.6981C36.9044 29.7844 36.7341 29.8409 36.5191 29.8706H36.5251ZM36.5519 29.7427C36.6505 29.7279 36.7401 29.6862 36.8178 29.6149C36.8954 29.5435 36.9342 29.4751 36.9342 29.4067C36.9342 29.3829 36.9283 29.3621 36.9163 29.3502C36.9044 29.3383 36.8865 29.3323 36.8626 29.3323C36.8058 29.3323 36.7491 29.368 36.6923 29.4424C36.6385 29.5167 36.5908 29.6149 36.5519 29.7427Z" fill="#595959"/>
<path d="M39.219 28.7344L38.8666 29.8883C38.8487 29.9448 38.8427 29.9805 38.8427 29.9954C38.8427 30.0311 38.8576 30.0578 38.8905 30.0787C38.9233 30.0995 38.9532 30.1084 38.9831 30.1084H39.0368L38.995 30.2452H38.1408L38.1796 30.1084H38.2125C38.2872 30.1084 38.3379 30.0965 38.3678 30.0697C38.3977 30.043 38.4245 29.9894 38.4514 29.9062L38.8098 28.7344H38.7382C38.6097 28.7344 38.5112 28.7642 38.4484 28.8266C38.3827 28.8891 38.326 28.9723 38.2752 29.0764H38.1378L38.2842 28.6006H39.8433L39.6969 29.0764H39.5685C39.5744 29.0259 39.5804 28.9842 39.5804 28.9515C39.5804 28.895 39.5685 28.8504 39.5476 28.8177C39.5267 28.785 39.4968 28.7612 39.4639 28.7523C39.4311 28.7404 39.3773 28.7374 39.3027 28.7374H39.219V28.7344Z" fill="#595959"/>
<path d="M39.8253 29.8706C39.8194 29.8974 39.8134 29.9212 39.8134 29.945C39.8134 30.0074 39.8283 30.058 39.8552 30.0877C39.8821 30.1204 39.9239 30.1353 39.9807 30.1353C40.0374 30.1353 40.0942 30.1204 40.1509 30.0877C40.2077 30.055 40.2674 30.0074 40.3271 29.945H40.4884C40.4227 30.0401 40.3331 30.1204 40.2166 30.1859C40.1001 30.2513 39.9747 30.284 39.8373 30.284C39.7208 30.284 39.6222 30.2572 39.5476 30.2067C39.4729 30.1561 39.4341 30.0758 39.4341 29.9658C39.4341 29.7903 39.5207 29.6208 39.6939 29.4572C39.8672 29.2967 40.0583 29.2134 40.2644 29.2134C40.354 29.2134 40.4227 29.2312 40.4675 29.2639C40.5123 29.2966 40.5332 29.3472 40.5332 29.4126C40.5332 29.5167 40.4675 29.6119 40.3361 29.6981C40.2047 29.7844 40.0344 29.8409 39.8194 29.8706H39.8253ZM39.8522 29.7427C39.9508 29.7279 40.0404 29.6862 40.1181 29.6149C40.1957 29.5435 40.2345 29.4751 40.2345 29.4067C40.2345 29.3829 40.2286 29.3621 40.2166 29.3502C40.2047 29.3383 40.1867 29.3323 40.1629 29.3323C40.1061 29.3323 40.0494 29.368 39.9926 29.4424C39.9388 29.5167 39.8911 29.6149 39.8522 29.7427Z" fill="#595959"/>
<path d="M41.5757 29.948H41.7369C41.6563 30.061 41.5637 30.1443 41.4622 30.2008C41.3576 30.2573 41.2441 30.2841 41.1187 30.2841C40.9783 30.2841 40.8708 30.2543 40.7961 30.1978C40.7214 30.1413 40.6826 30.058 40.6826 29.948C40.6826 29.829 40.7214 29.7101 40.7991 29.5941C40.8768 29.4781 40.9723 29.3859 41.0918 29.3145C41.2083 29.2461 41.3307 29.2104 41.4592 29.2104C41.5697 29.2104 41.6503 29.2342 41.7041 29.2818C41.7578 29.3294 41.7817 29.3859 41.7817 29.4543C41.7817 29.5049 41.7668 29.5495 41.7369 29.5881C41.7071 29.6268 41.6682 29.6446 41.6145 29.6446C41.5786 29.6446 41.5458 29.6328 41.5159 29.609C41.4861 29.5852 41.4711 29.5495 41.4711 29.5019C41.4711 29.4811 41.4741 29.4573 41.4831 29.4365C41.489 29.4157 41.492 29.4008 41.492 29.3919C41.492 29.371 41.4861 29.3591 41.4711 29.3473C41.4562 29.3383 41.4353 29.3324 41.4054 29.3324C41.3546 29.3324 41.3068 29.3562 41.2591 29.4038C41.2113 29.4513 41.1665 29.5376 41.1247 29.6595C41.0828 29.7815 41.0619 29.8736 41.0619 29.9391C41.0619 30.0045 41.0769 30.0521 41.1037 30.0848C41.1306 30.1175 41.1724 30.1324 41.2292 30.1324C41.2859 30.1324 41.3457 30.1175 41.4024 30.0848C41.4592 30.0521 41.5189 30.0075 41.5757 29.942V29.948Z" fill="#595959"/>
<path d="M41.8354 30.2452L42.2596 28.8623C42.2685 28.8296 42.2745 28.8058 42.2745 28.791C42.2745 28.7493 42.2237 28.7255 42.1252 28.7255L42.167 28.6006C42.2954 28.6006 42.382 28.6006 42.4268 28.5947C42.4716 28.5917 42.5284 28.5828 42.5941 28.5649H42.7106L42.4119 29.5345C42.5642 29.3174 42.7315 29.2103 42.9137 29.2103C42.9824 29.2103 43.0302 29.2252 43.066 29.2579C43.0988 29.2876 43.1168 29.3293 43.1168 29.3768C43.1168 29.4006 43.1138 29.4274 43.1048 29.4601C43.0959 29.4928 43.0511 29.6445 42.9704 29.9181C42.9495 29.9865 42.9376 30.0281 42.9376 30.0371C42.9376 30.0579 42.9465 30.0698 42.9674 30.0698C42.9883 30.0698 43.0092 30.0579 43.0331 30.0371C43.057 30.0133 43.0839 29.9806 43.1138 29.9359H43.2542C43.2034 30.0371 43.1347 30.1174 43.054 30.1739C42.9704 30.2333 42.8808 30.2631 42.7852 30.2631C42.6419 30.2631 42.5732 30.2066 42.5732 30.0906C42.5732 30.043 42.606 29.9181 42.6747 29.7129C42.7106 29.5999 42.7315 29.5315 42.7315 29.5077C42.7315 29.472 42.7165 29.4542 42.6837 29.4542C42.6329 29.4542 42.5672 29.5107 42.4866 29.6237C42.4059 29.7367 42.3342 29.8675 42.2685 30.0192L42.1998 30.2423H41.8384L41.8354 30.2452Z" fill="#595959"/>
<path d="M43.3557 30.2453L43.5887 29.487C43.6006 29.4483 43.6066 29.4216 43.6066 29.4097C43.6066 29.3978 43.6066 29.3918 43.5977 29.3859C43.5917 29.3799 43.5827 29.3799 43.5708 29.3799C43.52 29.3799 43.4692 29.4394 43.4184 29.5554H43.3169C43.4065 29.3294 43.5439 29.2134 43.735 29.2134C43.7978 29.2134 43.8485 29.2282 43.8844 29.261C43.9202 29.2937 43.9381 29.3353 43.9381 29.3888C43.9381 29.4572 43.9172 29.5643 43.8724 29.7041C44.0606 29.3769 44.2517 29.2134 44.4399 29.2134C44.4907 29.2134 44.5355 29.2282 44.5713 29.261C44.6102 29.2907 44.6281 29.3353 44.6281 29.3859C44.6281 29.4156 44.6191 29.4572 44.6042 29.5108L44.4787 29.9152C44.4548 29.9926 44.4429 30.0372 44.4429 30.052C44.4429 30.0788 44.4548 30.0907 44.4817 30.0907C44.5325 30.0907 44.5863 30.0401 44.64 29.9361H44.7595C44.6609 30.1502 44.5056 30.2572 44.2906 30.2572C44.2129 30.2572 44.1562 30.2394 44.1233 30.2067C44.0905 30.174 44.0725 30.1353 44.0725 30.0907C44.0725 30.0639 44.0845 30.0134 44.1084 29.9361L44.2219 29.5673C44.2338 29.5256 44.2428 29.4989 44.2428 29.49C44.2428 29.4662 44.2308 29.4543 44.204 29.4543C44.1412 29.4543 44.0606 29.5405 43.959 29.716C43.8575 29.8914 43.7858 30.0401 43.741 30.1591L43.7171 30.2453H43.3557Z" fill="#595959"/>
<path d="M44.876 29.8261C44.876 29.7398 44.8999 29.6506 44.9506 29.5525C45.0014 29.4543 45.0791 29.374 45.1866 29.3086C45.2941 29.2432 45.4196 29.2104 45.5659 29.2104C45.7481 29.2104 45.8825 29.2551 45.9691 29.3413C46.0557 29.4276 46.0976 29.5316 46.0976 29.6565C46.0976 29.8261 46.0318 29.9718 45.9004 30.0967C45.769 30.2216 45.6018 30.2811 45.3957 30.2811C45.2463 30.2811 45.1239 30.2454 45.0253 30.1681C44.9268 30.0937 44.876 29.9777 44.876 29.8231V29.8261ZM45.2314 29.948C45.2314 30.0194 45.2463 30.0729 45.2732 30.1086C45.3001 30.1443 45.3419 30.1621 45.3957 30.1621C45.4972 30.1621 45.5779 30.0878 45.6436 29.9361C45.7063 29.7844 45.7391 29.6565 45.7391 29.5525C45.7391 29.4722 45.7242 29.4157 45.6943 29.38C45.6645 29.3443 45.6286 29.3264 45.5898 29.3264C45.4823 29.3264 45.3957 29.4067 45.3329 29.5644C45.2702 29.722 45.2374 29.8499 45.2374 29.945L45.2314 29.948Z" fill="#595959"/>
<path d="M46.8144 29.9597H46.9398C46.904 30.0489 46.8413 30.1262 46.7606 30.1887C46.68 30.2511 46.5844 30.2839 46.4769 30.2839C46.4052 30.2839 46.3514 30.269 46.3096 30.2363C46.2708 30.2065 46.2499 30.1619 46.2499 30.1084C46.2499 30.0876 46.2648 30.0192 46.2977 29.9062L46.6113 28.8831C46.6262 28.8355 46.6322 28.8058 46.6322 28.7909C46.6322 28.7493 46.5844 28.7255 46.4858 28.7255L46.5247 28.6006C46.7248 28.6006 46.8681 28.5887 46.9548 28.5679H47.0712L46.6382 29.9805C46.6262 30.0221 46.6172 30.0489 46.6172 30.0608C46.6172 30.0876 46.6322 30.0995 46.662 30.0995C46.7098 30.0995 46.7606 30.0549 46.8114 29.9627L46.8144 29.9597Z" fill="#595959"/>
<path d="M47.0563 29.8261C47.0563 29.7398 47.0802 29.6506 47.1309 29.5525C47.1817 29.4543 47.2594 29.374 47.3669 29.3086C47.4744 29.2432 47.5999 29.2104 47.7462 29.2104C47.9284 29.2104 48.0628 29.2551 48.1494 29.3413C48.236 29.4276 48.2779 29.5316 48.2779 29.6565C48.2779 29.8261 48.2121 29.9718 48.0807 30.0967C47.9493 30.2216 47.7821 30.2811 47.576 30.2811C47.4266 30.2811 47.3042 30.2454 47.2056 30.1681C47.107 30.0937 47.0563 29.9777 47.0563 29.8231V29.8261ZM47.4117 29.948C47.4117 30.0194 47.4266 30.0729 47.4535 30.1086C47.4804 30.1443 47.5222 30.1621 47.576 30.1621C47.6775 30.1621 47.7582 30.0878 47.8239 29.9361C47.8866 29.7844 47.9194 29.6565 47.9194 29.5525C47.9194 29.4722 47.9045 29.4157 47.8746 29.38C47.8448 29.3443 47.8089 29.3264 47.7701 29.3264C47.6626 29.3264 47.576 29.4067 47.5132 29.5644C47.4475 29.722 47.4177 29.8499 47.4177 29.945L47.4117 29.948Z" fill="#595959"/>
<path d="M48.711 29.8796C48.6483 29.8469 48.5975 29.8053 48.5676 29.7577C48.5378 29.7101 48.5198 29.6566 48.5198 29.5941C48.5198 29.49 48.5646 29.4008 48.6572 29.3235C48.7468 29.2492 48.8693 29.2105 49.0246 29.2105C49.0903 29.2105 49.1471 29.2164 49.1978 29.2313C49.2486 29.2462 49.2934 29.267 49.3292 29.2938C49.383 29.2373 49.4487 29.2075 49.5204 29.2075C49.613 29.2075 49.6578 29.2462 49.6578 29.3235C49.6578 29.4008 49.6279 29.4425 49.5682 29.4425C49.5353 29.4425 49.5025 29.4246 49.4726 29.3919C49.4547 29.3711 49.4398 29.3622 49.4248 29.3622C49.4188 29.3622 49.4069 29.3651 49.395 29.3711C49.4398 29.4216 49.4637 29.4841 49.4637 29.5495C49.4637 29.6239 49.4398 29.6923 49.389 29.7577C49.3412 29.8231 49.2815 29.8677 49.2098 29.8915C49.1381 29.9183 49.0485 29.9332 48.935 29.9361C48.7946 29.9421 48.7229 29.9689 48.7229 30.0164C48.7229 30.0373 48.7349 30.0551 48.7588 30.07C48.7827 30.0848 48.8424 30.1057 48.938 30.1295C49.1052 30.1741 49.2247 30.2216 49.2934 30.2722C49.3651 30.3228 49.3979 30.3971 49.3979 30.4893C49.3979 30.6083 49.3382 30.7005 49.2187 30.7629C49.0993 30.8254 48.932 30.8581 48.717 30.8581C48.5288 30.8581 48.3884 30.8343 48.2928 30.7867C48.1973 30.7391 48.1525 30.6648 48.1525 30.5696C48.1525 30.5012 48.1764 30.4477 48.2271 30.409C48.2779 30.3703 48.3227 30.3495 48.3615 30.3495C48.3944 30.3495 48.4093 30.3644 48.4093 30.3941C48.4093 30.406 48.4034 30.4179 48.3944 30.4328C48.3675 30.4744 48.3526 30.519 48.3526 30.5607C48.3526 30.6202 48.3795 30.6648 48.4362 30.6945C48.493 30.7242 48.5736 30.7391 48.6841 30.7391C48.7946 30.7391 48.8872 30.7272 48.944 30.7005C49.0007 30.6737 49.0306 30.635 49.0306 30.5815C49.0306 30.5488 49.0127 30.522 48.9798 30.5012C48.944 30.4804 48.8782 30.4566 48.7767 30.4239C48.6333 30.3822 48.5407 30.3376 48.4989 30.29C48.4571 30.2425 48.4362 30.1919 48.4362 30.1384C48.4362 30.0164 48.5258 29.9302 48.708 29.8796H48.711ZM48.8484 29.6982C48.8484 29.7458 48.8573 29.7815 48.8723 29.8023C48.8872 29.8261 48.9081 29.838 48.941 29.838C48.9888 29.838 49.0336 29.7904 49.0784 29.6923C49.1202 29.5971 49.1441 29.5019 49.1441 29.4098C49.1441 29.3741 49.1381 29.3503 49.1232 29.3324C49.1082 29.3146 49.0873 29.3057 49.0604 29.3057C49.0276 29.3057 48.9947 29.3205 48.9678 29.3532C48.938 29.386 48.9141 29.4395 48.8902 29.5198C48.8663 29.5971 48.8544 29.6566 48.8544 29.6923L48.8484 29.6982Z" fill="#595959"/>
<path d="M50.2879 29.9508H50.4104C50.3059 30.1709 50.1625 30.2809 49.9743 30.2809C49.8997 30.2809 49.8429 30.2661 49.8041 30.2333C49.7653 30.2006 49.7473 30.156 49.7473 30.0936C49.7473 30.0579 49.7623 29.9925 49.7951 29.9032L49.9415 29.4839C49.9534 29.4512 49.9594 29.4304 49.9594 29.4214C49.9594 29.4125 49.9594 29.4036 49.9534 29.4006C49.9474 29.3977 49.9415 29.3947 49.9325 29.3947C49.8907 29.3947 49.8429 29.4482 49.7862 29.5523H49.6697C49.7742 29.3263 49.9236 29.2133 50.1117 29.2133C50.1804 29.2133 50.2312 29.2281 50.27 29.2638C50.3088 29.2995 50.3268 29.3411 50.3268 29.4006C50.3268 29.4423 50.3088 29.5107 50.276 29.5999L50.1356 29.9835C50.1147 30.0371 50.1057 30.0727 50.1057 30.0846C50.1057 30.0936 50.1057 30.0995 50.1147 30.1055C50.1207 30.1114 50.1266 30.1114 50.1386 30.1114C50.1595 30.1114 50.1864 30.0936 50.2192 30.0579C50.2521 30.0222 50.276 29.9865 50.2939 29.9538L50.2879 29.9508ZM50.494 28.7553C50.494 28.8058 50.4761 28.8504 50.4373 28.8891C50.3984 28.9278 50.3566 28.9456 50.3029 28.9456C50.2491 28.9456 50.2073 28.9278 50.1685 28.8891C50.1296 28.8504 50.1117 28.8088 50.1117 28.7553C50.1117 28.7017 50.1296 28.6571 50.1685 28.6214C50.2043 28.5858 50.2491 28.5649 50.3029 28.5649C50.3566 28.5649 50.3984 28.5828 50.4373 28.6214C50.4731 28.6571 50.494 28.7017 50.494 28.7553Z" fill="#595959"/>
<path d="M50.8972 29.8706C50.8913 29.8974 50.8853 29.9212 50.8853 29.945C50.8853 30.0074 50.9002 30.058 50.9271 30.0877C50.954 30.1204 50.9958 30.1353 51.0526 30.1353C51.1093 30.1353 51.1661 30.1204 51.2228 30.0877C51.2795 30.055 51.3393 30.0074 51.399 29.945H51.5603C51.4946 30.0401 51.405 30.1204 51.2885 30.1859C51.172 30.2513 51.0466 30.284 50.9092 30.284C50.7927 30.284 50.6941 30.2572 50.6195 30.2067C50.5448 30.1561 50.506 30.0758 50.506 29.9658C50.506 29.7903 50.5926 29.6208 50.7658 29.4572C50.9391 29.2967 51.1302 29.2134 51.3363 29.2134C51.4259 29.2134 51.4946 29.2312 51.5394 29.2639C51.5842 29.2966 51.6051 29.3472 51.6051 29.4126C51.6051 29.5167 51.5394 29.6119 51.408 29.6981C51.2766 29.7844 51.1063 29.8409 50.8913 29.8706H50.8972ZM50.9241 29.7427C51.0227 29.7279 51.1123 29.6862 51.1899 29.6149C51.2676 29.5435 51.3064 29.4751 51.3064 29.4067C51.3064 29.3829 51.3005 29.3621 51.2885 29.3502C51.2766 29.3383 51.2586 29.3323 51.2347 29.3323C51.178 29.3323 51.1213 29.368 51.0645 29.4424C51.0078 29.5167 50.963 29.6149 50.9241 29.7427Z" fill="#595959"/>
<path d="M51.6977 30.0283C51.6977 29.9867 51.7097 29.951 51.7366 29.9183C51.7635 29.8856 51.8023 29.8707 51.8501 29.8707C51.9397 29.8707 51.9964 29.9272 52.0143 30.0432C52.0263 30.1295 52.086 30.1711 52.1935 30.1711C52.2533 30.1711 52.2981 30.1592 52.3309 30.1354C52.3638 30.1116 52.3817 30.0819 52.3817 30.0492C52.3817 30.0254 52.3727 30.0075 52.3548 29.9867C52.3369 29.9689 52.2891 29.9361 52.2115 29.8856C52.095 29.8142 52.0173 29.7518 51.9785 29.7042C51.9397 29.6536 51.9217 29.5971 51.9217 29.5257C51.9217 29.4306 51.9665 29.3532 52.0562 29.2967C52.1458 29.2402 52.2742 29.2075 52.4414 29.2075C52.5818 29.2075 52.6834 29.2283 52.7461 29.267C52.8088 29.3057 52.8417 29.3532 52.8417 29.4127C52.8417 29.4544 52.8267 29.4871 52.7939 29.5138C52.764 29.5406 52.7282 29.5525 52.6893 29.5525C52.6057 29.5525 52.5579 29.5079 52.543 29.4157C52.531 29.3473 52.4803 29.3116 52.3937 29.3116C52.3399 29.3116 52.3011 29.3205 52.2742 29.3413C52.2473 29.3622 52.2354 29.3889 52.2354 29.4276C52.2354 29.4514 52.2443 29.4722 52.2622 29.49C52.2802 29.5079 52.325 29.5376 52.3907 29.5763C52.5131 29.6447 52.5908 29.7101 52.6266 29.7666C52.6625 29.8231 52.6834 29.8796 52.6834 29.9361C52.6834 30.0343 52.6356 30.1176 52.543 30.18C52.4504 30.2454 52.319 30.2752 52.1458 30.2752C52.0114 30.2752 51.9008 30.2544 51.8172 30.2098C51.7336 30.1681 51.6918 30.1027 51.6918 30.0194L51.6977 30.0283Z" fill="#595959"/>
<path d="M25.8713 29.4483H25.2411L25.1096 29.8825C25.0917 29.939 25.0828 29.9747 25.0828 29.9925C25.0828 30.0252 25.0977 30.052 25.1276 30.0728C25.1574 30.0936 25.1903 30.1025 25.2291 30.1025L25.1873 30.2393H24.4316L24.4735 30.1025C24.5272 30.1025 24.569 30.0906 24.6019 30.0698C24.6347 30.049 24.6646 29.9925 24.6915 29.9033L24.9991 28.904C25.0081 28.8773 25.0111 28.8564 25.0111 28.8416C25.0111 28.8029 24.9961 28.7761 24.9663 28.7553C24.9364 28.7345 24.9065 28.7286 24.8767 28.7286L24.9185 28.5947H25.695L25.6562 28.7286C25.5726 28.7286 25.5158 28.7405 25.486 28.7642C25.4561 28.788 25.4322 28.8326 25.4143 28.8981L25.2888 29.3025H25.922L26.0415 28.904C26.0505 28.8743 26.0534 28.8535 26.0534 28.8416C26.0534 28.8059 26.0385 28.7761 26.0086 28.7583C25.9788 28.7405 25.9459 28.7286 25.9161 28.7286L25.9579 28.5947H26.7075L26.6657 28.7286C26.609 28.7286 26.5642 28.7375 26.5343 28.7583C26.5044 28.7791 26.4776 28.8237 26.4567 28.8921L26.152 29.8825C26.1341 29.939 26.1251 29.9747 26.1251 29.9895C26.1251 30.0222 26.1401 30.049 26.1669 30.0698C26.1938 30.0906 26.2327 30.1025 26.2775 30.1025L26.2356 30.2393H25.4442L25.486 30.1025C25.5666 30.1025 25.6234 30.0877 25.6502 30.0609C25.6801 30.0341 25.707 29.9806 25.7309 29.9003L25.8683 29.4483H25.8713Z" fill="#DD8F3A"/>
<path d="M26.9405 29.8618C26.9345 29.8886 26.9285 29.9124 26.9285 29.9362C26.9285 29.9986 26.9434 30.0492 26.9703 30.0789C26.9972 30.1117 27.039 30.1265 27.0958 30.1265C27.1525 30.1265 27.2093 30.1117 27.266 30.0789C27.3228 30.0462 27.3825 29.9986 27.4422 29.9362H27.6035C27.5378 30.0314 27.4482 30.1117 27.3317 30.1771C27.2152 30.2425 27.0898 30.2752 26.9524 30.2752C26.8359 30.2752 26.7374 30.2485 26.6627 30.1979C26.588 30.1473 26.5492 30.067 26.5492 29.957C26.5492 29.7815 26.6358 29.612 26.809 29.4485C26.9823 29.2879 27.1734 29.2046 27.3795 29.2046C27.4691 29.2046 27.5378 29.2224 27.5826 29.2551C27.6274 29.2879 27.6483 29.3384 27.6483 29.4038C27.6483 29.5079 27.5826 29.6031 27.4512 29.6893C27.3198 29.7756 27.1495 29.8321 26.9345 29.8618H26.9405ZM26.9673 29.734C27.0659 29.7191 27.1555 29.6775 27.2332 29.6061C27.3108 29.5347 27.3496 29.4663 27.3496 29.3979C27.3496 29.3741 27.3437 29.3533 27.3317 29.3414C27.3198 29.3295 27.3019 29.3235 27.278 29.3235C27.2212 29.3235 27.1645 29.3592 27.1077 29.4336C27.054 29.5079 27.0062 29.6061 26.9673 29.734Z" fill="#DD8F3A"/>
<path d="M28.4458 30.0043C28.3054 30.1857 28.168 30.275 28.0336 30.275C27.9739 30.275 27.9201 30.2541 27.8753 30.2095C27.8305 30.1649 27.8066 30.0965 27.8066 30.0013C27.8066 29.814 27.8723 29.6385 28.0068 29.472C28.1382 29.3054 28.2905 29.2222 28.4607 29.2222C28.5145 29.2222 28.5533 29.237 28.5832 29.2668C28.6131 29.2965 28.631 29.3382 28.637 29.3976L28.6788 29.2489H29.0282L28.8102 29.9627C28.7982 30.0073 28.7893 30.0341 28.7893 30.04C28.7893 30.0638 28.8012 30.0727 28.8221 30.0727C28.864 30.0727 28.9058 30.037 28.9476 29.9627H29.082C29.0461 30.0608 28.9864 30.1382 28.9088 30.1947C28.8311 30.2512 28.7475 30.2809 28.6549 30.2809C28.5951 30.2809 28.5414 30.266 28.5026 30.2333C28.4607 30.2006 28.4398 30.15 28.4398 30.0787C28.4398 30.0608 28.4398 30.037 28.4488 30.0103L28.4458 30.0043ZM28.174 29.9448C28.174 29.9776 28.18 30.0014 28.1919 30.0192C28.2039 30.037 28.2218 30.043 28.2457 30.043C28.2815 30.043 28.3234 30.0192 28.3741 29.9686C28.4219 29.9181 28.4697 29.8348 28.5145 29.7129C28.5593 29.5939 28.5832 29.5047 28.5832 29.4512C28.5832 29.4155 28.5772 29.3887 28.5653 29.3709C28.5533 29.353 28.5324 29.3441 28.5055 29.3441C28.4219 29.3441 28.3472 29.4244 28.2785 29.582C28.2099 29.7396 28.174 29.8616 28.174 29.9478V29.9448Z" fill="#DD8F3A"/>
<path d="M29.769 29.9509H29.8944C29.8586 30.0401 29.7958 30.1174 29.7152 30.1799C29.6346 30.2424 29.539 30.2751 29.4315 30.2751C29.3598 30.2751 29.306 30.2602 29.2642 30.2275C29.2254 30.1977 29.2045 30.1531 29.2045 30.0996C29.2045 30.0788 29.2194 30.0104 29.2523 29.8974L29.5659 28.8743C29.5808 28.8267 29.5868 28.797 29.5868 28.7821C29.5868 28.7405 29.539 28.7167 29.4404 28.7167L29.4792 28.5918C29.6794 28.5918 29.8227 28.5799 29.9093 28.5591H30.0258L29.5927 29.9717C29.5808 30.0134 29.5718 30.0401 29.5718 30.052C29.5718 30.0788 29.5868 30.0907 29.6166 30.0907C29.6644 30.0907 29.7152 30.0461 29.766 29.9539L29.769 29.9509Z" fill="#DD8F3A"/>
<path d="M30.6471 29.8946H30.7815C30.7457 29.9898 30.6889 30.076 30.6053 30.1563C30.5217 30.2366 30.4261 30.2753 30.3156 30.2753C30.2469 30.2753 30.1871 30.2575 30.1423 30.2188C30.0945 30.1831 30.0736 30.1207 30.0736 30.0374C30.0736 29.9838 30.0916 29.9036 30.1274 29.7965L30.2558 29.3742H30.0527L30.0945 29.2404H30.2976L30.4111 28.8716H30.7725L30.659 29.2404H30.8801L30.8383 29.3742H30.6172L30.4649 29.8679C30.438 29.9601 30.4231 30.0166 30.4231 30.0374C30.4231 30.0552 30.4261 30.0671 30.435 30.076C30.444 30.085 30.453 30.0879 30.4709 30.0879C30.5306 30.0879 30.5904 30.0225 30.6501 29.8887L30.6471 29.8946Z" fill="#DD8F3A"/>
<path d="M30.8711 30.2365L31.2952 28.8536C31.3042 28.8208 31.3101 28.797 31.3101 28.7822C31.3101 28.7405 31.2594 28.7167 31.1608 28.7167L31.2026 28.5918C31.3311 28.5918 31.4177 28.5918 31.4625 28.5859C31.5073 28.5829 31.564 28.574 31.6297 28.5562H31.7462L31.4475 29.5257C31.5999 29.3086 31.7671 29.2015 31.9493 29.2015C32.018 29.2015 32.0658 29.2164 32.1016 29.2491C32.1345 29.2788 32.1524 29.3205 32.1524 29.368C32.1524 29.3918 32.1494 29.4186 32.1405 29.4513C32.1315 29.484 32.0867 29.6357 32.0061 29.9093C31.9852 29.9777 31.9732 30.0194 31.9732 30.0283C31.9732 30.0491 31.9822 30.061 32.0031 30.061C32.021 30.061 32.0449 30.0491 32.0688 30.0283C32.0927 30.0045 32.1196 29.9718 32.1494 29.9272H32.2898C32.239 30.0283 32.1703 30.1086 32.0897 30.1651C32.009 30.2216 31.9165 30.2543 31.8209 30.2543C31.6775 30.2543 31.6088 30.1978 31.6088 30.0818C31.6088 30.0342 31.6417 29.9093 31.7104 29.7041C31.7462 29.5911 31.7671 29.5227 31.7671 29.4989C31.7671 29.4632 31.7522 29.4454 31.7193 29.4454C31.6686 29.4454 31.6028 29.5019 31.5222 29.6149C31.4446 29.7279 31.3699 29.8588 31.3042 30.0104L31.2355 30.2335H30.8741L30.8711 30.2365Z" fill="#DD8F3A"/>
<path d="M33.2874 29.9392H33.4487C33.368 30.0522 33.2754 30.1355 33.1709 30.192C33.0664 30.2485 32.9529 30.2753 32.8274 30.2753C32.687 30.2753 32.5795 30.2455 32.5049 30.189C32.4302 30.1325 32.3914 30.0492 32.3914 29.9392C32.3914 29.8202 32.4302 29.7013 32.5078 29.5853C32.5855 29.4693 32.6811 29.3771 32.8005 29.3057C32.917 29.2373 33.0395 29.2017 33.1679 29.2017C33.2784 29.2017 33.3591 29.2255 33.4128 29.273C33.4636 29.3206 33.4905 29.3771 33.4905 29.4455C33.4905 29.4961 33.4756 29.5407 33.4487 29.5794C33.4188 29.618 33.38 29.6359 33.3262 29.6359C33.2904 29.6359 33.2575 29.624 33.2277 29.6002C33.1978 29.5764 33.1828 29.5407 33.1828 29.4931C33.1828 29.4723 33.1858 29.4485 33.1948 29.4277C33.2008 29.4069 33.2038 29.392 33.2038 29.3831C33.2038 29.3623 33.1978 29.3504 33.1828 29.3385C33.1679 29.3295 33.147 29.3236 33.1171 29.3236C33.0664 29.3236 33.0186 29.3474 32.9708 29.395C32.923 29.4426 32.8782 29.5288 32.8364 29.6507C32.7946 29.7727 32.7737 29.8649 32.7737 29.9303C32.7737 29.9957 32.7886 30.0433 32.8155 30.076C32.8424 30.1087 32.8842 30.1236 32.9409 30.1236C32.9977 30.1236 33.0574 30.1087 33.1142 30.076C33.1709 30.0433 33.2306 29.9987 33.2904 29.9333L33.2874 29.9392Z" fill="#DD8F3A"/>
<path d="M34.264 30.0043C34.1237 30.1857 33.9863 30.275 33.8519 30.275C33.7921 30.275 33.7414 30.2541 33.6936 30.2095C33.6488 30.1649 33.6249 30.0965 33.6249 30.0013C33.6249 29.814 33.6906 29.6385 33.825 29.472C33.9564 29.3054 34.1087 29.2222 34.279 29.2222C34.3327 29.2222 34.3716 29.237 34.4014 29.2668C34.4313 29.2965 34.4492 29.3382 34.4552 29.3976L34.497 29.2489H34.8465L34.6284 29.9627C34.6135 30.0073 34.6075 30.0341 34.6075 30.04C34.6075 30.0638 34.6195 30.0727 34.6404 30.0727C34.6822 30.0727 34.724 30.037 34.7658 29.9627H34.9002C34.8614 30.0608 34.8046 30.1382 34.727 30.1947C34.6493 30.2512 34.5627 30.2809 34.4731 30.2809C34.4134 30.2809 34.3596 30.266 34.3208 30.2333C34.279 30.2006 34.2581 30.15 34.2581 30.0787C34.2581 30.0608 34.2581 30.037 34.267 30.0103L34.264 30.0043ZM33.9922 29.9448C33.9922 29.9776 33.9982 30.0014 34.0102 30.0192C34.0221 30.037 34.04 30.043 34.0639 30.043C34.0998 30.043 34.1416 30.0192 34.1924 29.9686C34.2402 29.9181 34.2879 29.8348 34.3327 29.7129C34.3775 29.5939 34.4014 29.5047 34.4014 29.4512C34.4014 29.4155 34.3955 29.3887 34.3805 29.3709C34.3686 29.353 34.3477 29.3441 34.3208 29.3441C34.2372 29.3441 34.1625 29.4244 34.0938 29.582C34.0251 29.7396 33.9893 29.8616 33.9893 29.9478L33.9922 29.9448Z" fill="#DD8F3A"/>
<path d="M35.0496 30.2366L35.2646 29.5377C35.2795 29.4901 35.2855 29.4574 35.2855 29.4366C35.2855 29.4128 35.2736 29.3979 35.2467 29.3979C35.1899 29.3979 35.1302 29.4544 35.0675 29.5644H34.954C35.0197 29.4425 35.0973 29.3533 35.1899 29.2938C35.2825 29.2343 35.3691 29.2046 35.4528 29.2046C35.5035 29.2046 35.5424 29.2195 35.5693 29.2522C35.5961 29.2849 35.6111 29.3235 35.6111 29.3741C35.6111 29.4276 35.5872 29.5377 35.5424 29.7012C35.7246 29.3711 35.8858 29.2046 36.0232 29.2046C36.0651 29.2046 36.0979 29.2165 36.1248 29.2433C36.1517 29.27 36.1666 29.3057 36.1666 29.3533C36.1666 29.4098 36.1517 29.4604 36.1188 29.505C36.086 29.5496 36.0471 29.5734 35.9993 29.5734C35.9575 29.5734 35.9277 29.5555 35.9038 29.5228C35.8858 29.499 35.8709 29.4841 35.853 29.4841C35.7962 29.4841 35.7216 29.5734 35.623 29.7488C35.5274 29.9243 35.4587 30.0879 35.4169 30.2366H35.0496Z" fill="#DD8F3A"/>
<path d="M36.4803 29.8618C36.4743 29.8886 36.4683 29.9124 36.4683 29.9362C36.4683 29.9986 36.4832 30.0492 36.5101 30.0789C36.537 30.1117 36.5788 30.1265 36.6356 30.1265C36.6923 30.1265 36.7491 30.1117 36.8058 30.0789C36.8626 30.0462 36.9223 29.9986 36.982 29.9362H37.1433C37.0776 30.0314 36.988 30.1117 36.8715 30.1771C36.755 30.2425 36.6296 30.2752 36.4922 30.2752C36.3757 30.2752 36.2772 30.2485 36.2025 30.1979C36.1278 30.1473 36.089 30.067 36.089 29.957C36.089 29.7815 36.1756 29.612 36.3488 29.4485C36.5221 29.2849 36.7132 29.2046 36.9193 29.2046C37.0089 29.2046 37.0776 29.2224 37.1224 29.2551C37.1672 29.2879 37.1881 29.3384 37.1881 29.4038C37.1881 29.5079 37.1224 29.6031 36.991 29.6893C36.8596 29.7726 36.6893 29.8321 36.4743 29.8618H36.4803ZM36.5071 29.734C36.6057 29.7191 36.6953 29.6775 36.773 29.6061C36.8506 29.5347 36.8894 29.4663 36.8894 29.3979C36.8894 29.3741 36.8835 29.3533 36.8715 29.3414C36.8596 29.3295 36.8417 29.3235 36.8178 29.3235C36.761 29.3235 36.7043 29.3592 36.6475 29.4336C36.5937 29.5079 36.546 29.6061 36.5071 29.734Z" fill="#DD8F3A"/>
<path d="M39.1743 28.7256L38.8218 29.8795C38.8039 29.936 38.798 29.9717 38.798 29.9866C38.798 30.0223 38.8129 30.049 38.8457 30.0699C38.8756 30.0907 38.9085 30.0996 38.9383 30.0996H38.9921L38.9503 30.2364H38.0961L38.1349 30.0996H38.1678C38.2424 30.0996 38.2932 30.0877 38.3231 30.0609C38.3529 30.0342 38.3798 29.9806 38.4067 29.8974L38.7651 28.7256H38.6934C38.565 28.7256 38.4664 28.7554 38.4037 28.8178C38.338 28.8803 38.2812 28.9635 38.2335 29.0676H38.0961L38.2424 28.5918H39.8015L39.6552 29.0676H39.5267C39.5327 29.0171 39.5387 28.9754 39.5387 28.9427C39.5387 28.8862 39.5267 28.8416 39.5058 28.8089C39.4849 28.7762 39.458 28.7524 39.4222 28.7435C39.3893 28.7316 39.3356 28.7286 39.2609 28.7286H39.1773L39.1743 28.7256Z" fill="#DD8F3A"/>
<path d="M39.7805 29.8618C39.7746 29.8886 39.7686 29.9124 39.7686 29.9362C39.7686 29.9986 39.7835 30.0492 39.8104 30.0789C39.8373 30.1117 39.8791 30.1265 39.9359 30.1265C39.9926 30.1265 40.0494 30.1117 40.1061 30.0789C40.1629 30.0462 40.2226 29.9986 40.2823 29.9362H40.4436C40.3779 30.0314 40.2883 30.1117 40.1718 30.1771C40.0553 30.2425 39.9299 30.2752 39.7925 30.2752C39.676 30.2752 39.5774 30.2485 39.5028 30.1979C39.4281 30.1473 39.3893 30.067 39.3893 29.957C39.3893 29.7815 39.4759 29.612 39.6491 29.4485C39.8224 29.2849 40.0135 29.2046 40.2196 29.2046C40.3092 29.2046 40.3779 29.2224 40.4227 29.2551C40.4675 29.2879 40.4884 29.3384 40.4884 29.4038C40.4884 29.5079 40.4227 29.6031 40.2913 29.6893C40.1599 29.7726 39.9896 29.8321 39.7746 29.8618H39.7805ZM39.8074 29.734C39.906 29.7191 39.9956 29.6775 40.0732 29.6061C40.1509 29.5347 40.1897 29.4663 40.1897 29.3979C40.1897 29.3741 40.1838 29.3533 40.1718 29.3414C40.1599 29.3295 40.1419 29.3235 40.1181 29.3235C40.0613 29.3235 40.0046 29.3592 39.9478 29.4336C39.894 29.5079 39.8463 29.6061 39.8074 29.734Z" fill="#DD8F3A"/>
<path d="M41.5308 29.9392H41.6921C41.6114 30.0522 41.5188 30.1355 41.4143 30.192C41.3128 30.2485 41.1963 30.2753 41.0708 30.2753C40.9305 30.2753 40.8229 30.2455 40.7483 30.189C40.6736 30.1325 40.6348 30.0492 40.6348 29.9392C40.6348 29.8202 40.6736 29.7013 40.7483 29.5853C40.8229 29.4693 40.9215 29.3771 41.041 29.3057C41.1604 29.2344 41.2799 29.2017 41.4083 29.2017C41.5188 29.2017 41.5995 29.2255 41.6533 29.273C41.704 29.3206 41.7309 29.3771 41.7309 29.4455C41.7309 29.4961 41.716 29.5407 41.6891 29.5794C41.6622 29.618 41.6204 29.6359 41.5666 29.6359C41.5308 29.6359 41.4979 29.624 41.4681 29.6002C41.4382 29.5764 41.4233 29.5407 41.4233 29.4931C41.4233 29.4723 41.4263 29.4485 41.4352 29.4277C41.4412 29.4069 41.4442 29.392 41.4442 29.3831C41.4442 29.3623 41.4382 29.3504 41.4233 29.3385C41.4083 29.3295 41.3874 29.3236 41.3576 29.3236C41.3068 29.3236 41.259 29.3474 41.2112 29.395C41.1634 29.4426 41.1186 29.5288 41.0768 29.6507C41.035 29.7727 41.0141 29.8649 41.0141 29.9303C41.0141 29.9957 41.029 30.0433 41.0559 30.076C41.0828 30.1087 41.1246 30.1236 41.1813 30.1236C41.2381 30.1236 41.2978 30.1087 41.3546 30.076C41.4113 30.0433 41.4711 29.9987 41.5278 29.9333L41.5308 29.9392Z" fill="#DD8F3A"/>
<path d="M41.7906 30.2365L42.2148 28.8536C42.2237 28.8208 42.2297 28.797 42.2297 28.7822C42.2297 28.7405 42.1789 28.7167 42.0804 28.7167L42.1222 28.5918C42.2506 28.5918 42.3372 28.5918 42.382 28.5859C42.4268 28.5829 42.4836 28.574 42.5493 28.5562H42.6658L42.3671 29.5257C42.5194 29.3086 42.6867 29.2015 42.8689 29.2015C42.9376 29.2015 42.9883 29.2164 43.0212 29.2491C43.054 29.2788 43.072 29.3205 43.072 29.368C43.072 29.3918 43.069 29.4186 43.06 29.4513C43.0511 29.484 43.0063 29.6357 42.9226 29.9093C42.9017 29.9777 42.8898 30.0194 42.8898 30.0283C42.8898 30.0491 42.8987 30.061 42.9196 30.061C42.9406 30.061 42.9615 30.0491 42.9854 30.0283C43.0092 30.0045 43.0361 29.9718 43.066 29.9272H43.2064C43.1556 30.0283 43.0869 30.1086 43.0063 30.1651C42.9226 30.2246 42.833 30.2543 42.7375 30.2543C42.5941 30.2543 42.5254 30.1978 42.5254 30.0818C42.5254 30.0342 42.5582 29.9093 42.6269 29.7041C42.6628 29.5911 42.6837 29.5227 42.6837 29.4989C42.6837 29.4632 42.6688 29.4454 42.6359 29.4454C42.5851 29.4454 42.5194 29.5019 42.4388 29.6149C42.3611 29.7279 42.2865 29.8588 42.2207 30.0104L42.152 30.2335H41.7906V30.2365Z" fill="#DD8F3A"/>
<path d="M43.3109 30.2366L43.5439 29.4782C43.5558 29.4395 43.5618 29.4128 43.5618 29.4009C43.5618 29.389 43.5618 29.383 43.5529 29.3771C43.5469 29.3711 43.5379 29.3711 43.526 29.3711C43.4752 29.3711 43.4244 29.4306 43.3736 29.5466H43.2721C43.3617 29.3206 43.4991 29.2046 43.6902 29.2046C43.753 29.2046 43.8037 29.2195 43.8396 29.2522C43.8754 29.2849 43.8933 29.3265 43.8933 29.3801C43.8933 29.4485 43.8694 29.5555 43.8276 29.6953C44.0158 29.3682 44.2069 29.2046 44.3951 29.2046C44.4459 29.2046 44.4907 29.2195 44.5265 29.2522C44.5654 29.2819 44.5833 29.3265 44.5833 29.3771C44.5833 29.4068 44.5743 29.4485 44.5594 29.502L44.4339 29.9064C44.41 29.9838 44.3981 30.0284 44.3981 30.0433C44.3981 30.07 44.41 30.0819 44.4369 30.0819C44.4877 30.0819 44.5415 30.0314 44.5952 29.9273H44.7147C44.6161 30.1414 44.4608 30.2485 44.2458 30.2485C44.1681 30.2485 44.1114 30.2306 44.0785 30.1979C44.0457 30.1652 44.0277 30.1265 44.0277 30.0819C44.0277 30.0551 44.0397 30.0046 44.0636 29.9273L44.1771 29.5585C44.189 29.5169 44.195 29.4901 44.195 29.4812C44.195 29.4574 44.1831 29.4455 44.1562 29.4455C44.0935 29.4455 44.0128 29.5317 43.9113 29.7072C43.8097 29.8827 43.738 30.0314 43.6932 30.1503L43.6693 30.2366H43.3079H43.3109Z" fill="#DD8F3A"/>
<path d="M44.8312 29.8173C44.8312 29.731 44.8551 29.6418 44.9058 29.5437C44.9566 29.4455 45.0343 29.3652 45.1418 29.2998C45.2493 29.2344 45.3748 29.2017 45.5211 29.2017C45.7033 29.2017 45.8377 29.2463 45.9243 29.3325C46.0109 29.4188 46.0528 29.5228 46.0528 29.6478C46.0528 29.8173 45.987 29.963 45.8556 30.0879C45.7242 30.2128 45.557 30.2723 45.3509 30.2723C45.2015 30.2723 45.0791 30.2366 44.9805 30.1593C44.882 30.0849 44.8312 29.9689 44.8312 29.8143V29.8173ZM45.1866 29.9392C45.1866 30.0106 45.2015 30.0641 45.2284 30.0998C45.2553 30.1355 45.2971 30.1533 45.3509 30.1533C45.4524 30.1533 45.5331 30.079 45.5988 29.9273C45.6615 29.7756 45.6943 29.6478 45.6943 29.5437C45.6943 29.4634 45.6794 29.4069 45.6495 29.3712C45.6197 29.3355 45.5838 29.3176 45.545 29.3176C45.4375 29.3176 45.3509 29.3979 45.2882 29.5556C45.2254 29.7132 45.1926 29.8411 45.1926 29.9362L45.1866 29.9392Z" fill="#DD8F3A"/>
<path d="M46.7696 29.9509H46.895C46.8592 30.0401 46.7965 30.1174 46.7158 30.1799C46.6352 30.2424 46.5396 30.2751 46.4321 30.2751C46.3604 30.2751 46.3066 30.2602 46.2648 30.2275C46.226 30.1977 46.2051 30.1531 46.2051 30.0996C46.2051 30.0788 46.22 30.0104 46.2529 29.8974L46.5665 28.8743C46.5814 28.8267 46.5874 28.797 46.5874 28.7821C46.5874 28.7405 46.5396 28.7167 46.441 28.7167L46.4799 28.5918C46.68 28.5918 46.8233 28.5799 46.91 28.5591H47.0264L46.5934 29.9717C46.5814 30.0134 46.5724 30.0401 46.5724 30.052C46.5724 30.0788 46.5874 30.0907 46.6173 30.0907C46.665 30.0907 46.7158 30.0461 46.7666 29.9539L46.7696 29.9509Z" fill="#DD8F3A"/>
<path d="M47.0115 29.8173C47.0115 29.731 47.0354 29.6418 47.0861 29.5437C47.1369 29.4455 47.2146 29.3652 47.3221 29.2998C47.4296 29.2344 47.5551 29.2017 47.7014 29.2017C47.8836 29.2017 48.018 29.2463 48.1046 29.3325C48.1912 29.4188 48.2331 29.5228 48.2331 29.6478C48.2331 29.8173 48.1674 29.963 48.0359 30.0879C47.9045 30.2128 47.7373 30.2723 47.5312 30.2723C47.3818 30.2723 47.2594 30.2366 47.1608 30.1593C47.0622 30.0849 47.0115 29.9689 47.0115 29.8143V29.8173ZM47.3669 29.9392C47.3669 30.0106 47.3818 30.0641 47.4087 30.0998C47.4356 30.1355 47.4774 30.1533 47.5312 30.1533C47.6327 30.1533 47.7134 30.079 47.7791 29.9273C47.8418 29.7756 47.8746 29.6478 47.8746 29.5437C47.8746 29.4634 47.8597 29.4069 47.8298 29.3712C47.8 29.3355 47.7641 29.3176 47.7253 29.3176C47.6178 29.3176 47.5312 29.3979 47.4684 29.5556C47.4027 29.7132 47.3729 29.8411 47.3729 29.9362L47.3669 29.9392Z" fill="#DD8F3A"/>
<path d="M48.6662 29.8709C48.6035 29.8381 48.5527 29.7965 48.5228 29.7489C48.493 29.7013 48.475 29.6478 48.475 29.5853C48.475 29.4813 48.5198 29.392 48.6124 29.3147C48.702 29.2404 48.8245 29.2017 48.9798 29.2017C49.0455 29.2017 49.1023 29.2077 49.153 29.2225C49.2038 29.2374 49.2486 29.2582 49.2844 29.285C49.3382 29.2285 49.4039 29.1987 49.4756 29.1987C49.5682 29.1987 49.613 29.2374 49.613 29.3147C49.613 29.392 49.5831 29.4337 49.5234 29.4337C49.4905 29.4337 49.4577 29.4158 49.4278 29.3831C49.4099 29.3623 49.395 29.3534 49.38 29.3534C49.374 29.3534 49.3621 29.3564 49.3502 29.3623C49.395 29.4129 49.4189 29.4753 49.4189 29.5407C49.4189 29.6151 49.395 29.6835 49.3442 29.7489C49.2964 29.8143 49.2367 29.859 49.165 29.8827C49.0933 29.9095 49.0037 29.9244 48.8902 29.9274C48.7498 29.9333 48.6781 29.9601 48.6781 30.0077C48.6781 30.0285 48.6901 30.0463 48.714 30.0612C48.7379 30.0761 48.7976 30.0969 48.8932 30.1207C49.0604 30.1653 49.1799 30.2129 49.2486 30.2634C49.3203 30.314 49.3531 30.3883 49.3531 30.4805C49.3531 30.5995 49.2934 30.6917 49.1739 30.7541C49.0545 30.8166 48.8872 30.8493 48.6722 30.8493C48.484 30.8493 48.3436 30.8255 48.248 30.7779C48.1525 30.7303 48.1077 30.656 48.1077 30.5608C48.1077 30.4924 48.1316 30.4389 48.1823 30.4002C48.2331 30.3616 48.2779 30.3407 48.3167 30.3407C48.3496 30.3407 48.3645 30.3556 48.3645 30.3853C48.3645 30.3972 48.3586 30.4091 48.3496 30.424C48.3227 30.4656 48.3078 30.5103 48.3078 30.5519C48.3078 30.6114 48.3347 30.656 48.3914 30.6857C48.4482 30.7155 48.5288 30.7303 48.6393 30.7303C48.7498 30.7303 48.8424 30.7184 48.8992 30.6917C48.9559 30.6649 48.9858 30.6262 48.9858 30.5727C48.9858 30.54 48.9678 30.5132 48.935 30.4924C48.8992 30.4716 48.8334 30.4478 48.7319 30.4151C48.5885 30.3735 48.4959 30.3288 48.4541 30.2813C48.4123 30.2337 48.3914 30.1831 48.3914 30.1296C48.3914 30.0077 48.481 29.9214 48.6632 29.8709H48.6662ZM48.8036 29.6894C48.8036 29.737 48.8125 29.7727 48.8275 29.7935C48.8424 29.8173 48.8633 29.8292 48.8962 29.8292C48.944 29.8292 48.9888 29.7816 49.0336 29.6835C49.0754 29.5883 49.0993 29.4932 49.0993 29.401C49.0993 29.3653 49.0933 29.3415 49.0784 29.3236C49.0634 29.3058 49.0425 29.2969 49.0156 29.2969C48.9828 29.2969 48.9499 29.3117 48.923 29.3445C48.8932 29.3772 48.8693 29.4307 48.8454 29.511C48.8215 29.5883 48.8096 29.6478 48.8096 29.6835L48.8036 29.6894Z" fill="#DD8F3A"/>
<path d="M50.2402 29.942H50.3627C50.2581 30.1621 50.1148 30.2721 49.9266 30.2721C49.8519 30.2721 49.7952 30.2573 49.7564 30.2246C49.7175 30.1918 49.6996 30.1472 49.6996 30.0848C49.6996 30.0491 49.7145 29.9837 49.7474 29.8944L49.8937 29.4751C49.9057 29.4424 49.9117 29.4216 49.9117 29.4127C49.9117 29.4037 49.9117 29.3948 49.9057 29.3918C49.8997 29.3889 49.8937 29.3859 49.8848 29.3859C49.843 29.3859 49.7952 29.4394 49.7384 29.5435H49.6219C49.7265 29.3175 49.8758 29.2045 50.064 29.2045C50.1327 29.2045 50.1835 29.2194 50.2223 29.255C50.2611 29.2907 50.279 29.3324 50.279 29.3918C50.279 29.4335 50.2611 29.5019 50.2283 29.5911L50.0879 29.9747C50.067 30.0283 50.058 30.064 50.058 30.0759C50.058 30.0848 50.058 30.0907 50.067 30.0967C50.073 30.1026 50.0789 30.1026 50.0909 30.1026C50.1118 30.1026 50.1387 30.0848 50.1715 30.0491C50.2044 30.0134 50.2283 29.9777 50.2462 29.945L50.2402 29.942ZM50.4463 28.7465C50.4463 28.797 50.4284 28.8417 50.3895 28.8803C50.3507 28.919 50.3089 28.9368 50.2551 28.9368C50.2014 28.9368 50.1596 28.919 50.1207 28.8803C50.0819 28.8417 50.064 28.8 50.064 28.7465C50.064 28.693 50.0819 28.6483 50.1207 28.6127C50.1566 28.577 50.2014 28.5562 50.2551 28.5562C50.3089 28.5562 50.3507 28.574 50.3895 28.6127C50.4254 28.6483 50.4463 28.693 50.4463 28.7465Z" fill="#DD8F3A"/>
<path d="M50.8524 29.8618C50.8465 29.8886 50.8405 29.9124 50.8405 29.9362C50.8405 29.9986 50.8554 30.0492 50.8823 30.0789C50.9092 30.1117 50.951 30.1265 51.0078 30.1265C51.0645 30.1265 51.1213 30.1117 51.178 30.0789C51.2348 30.0462 51.2945 29.9986 51.3542 29.9362H51.5155C51.4498 30.0314 51.3602 30.1117 51.2437 30.1771C51.1272 30.2425 51.0018 30.2752 50.8644 30.2752C50.7479 30.2752 50.6493 30.2485 50.5747 30.1979C50.5 30.1473 50.4612 30.067 50.4612 29.957C50.4612 29.7815 50.5478 29.612 50.721 29.4485C50.8943 29.2879 51.0854 29.2046 51.2915 29.2046C51.3811 29.2046 51.4498 29.2224 51.4946 29.2551C51.5394 29.2879 51.5603 29.3384 51.5603 29.4038C51.5603 29.5079 51.4946 29.6031 51.3632 29.6893C51.2318 29.7756 51.0615 29.8321 50.8465 29.8618H50.8524ZM50.8793 29.734C50.9779 29.7191 51.0675 29.6775 51.1452 29.6061C51.2228 29.5347 51.2616 29.4663 51.2616 29.3979C51.2616 29.3741 51.2557 29.3533 51.2437 29.3414C51.2318 29.3295 51.2138 29.3235 51.19 29.3235C51.1332 29.3235 51.0765 29.3592 51.0197 29.4336C50.963 29.5079 50.9182 29.6061 50.8793 29.734Z" fill="#DD8F3A"/>
<path d="M51.6529 30.0195C51.6529 29.9779 51.6649 29.9422 51.6918 29.9095C51.7187 29.8768 51.7575 29.8619 51.8053 29.8619C51.8949 29.8619 51.9516 29.9184 51.9695 30.0344C51.9815 30.1207 52.0412 30.1623 52.1488 30.1623C52.2085 30.1623 52.2533 30.1504 52.2861 30.1266C52.319 30.1028 52.3369 30.0731 52.3369 30.0404C52.3369 30.0166 52.328 29.9987 52.31 29.9779C52.2921 29.9601 52.2443 29.9274 52.1667 29.8768C52.0502 29.8054 51.9725 29.743 51.9337 29.6954C51.8949 29.6448 51.877 29.5883 51.877 29.5169C51.877 29.4218 51.9218 29.3445 52.0114 29.288C52.101 29.2314 52.2294 29.1987 52.3966 29.1987C52.537 29.1987 52.6386 29.2195 52.7013 29.2582C52.764 29.2969 52.7969 29.3445 52.7969 29.4039C52.7969 29.4456 52.7819 29.4783 52.7491 29.505C52.7192 29.5318 52.6834 29.5437 52.6445 29.5437C52.5609 29.5437 52.5131 29.4991 52.4982 29.4069C52.4863 29.3385 52.4355 29.3028 52.3489 29.3028C52.2951 29.3028 52.2563 29.3117 52.2294 29.3326C52.2025 29.3534 52.1906 29.3801 52.1906 29.4188C52.1906 29.4426 52.1995 29.4634 52.2174 29.4813C52.2354 29.4991 52.2802 29.5288 52.3459 29.5675C52.4683 29.6359 52.546 29.7013 52.5818 29.7578C52.6177 29.8143 52.6386 29.8708 52.6386 29.9274C52.6386 30.0255 52.5908 30.1088 52.4982 30.1712C52.4056 30.2366 52.2742 30.2664 52.101 30.2664C51.9666 30.2664 51.856 30.2456 51.7724 30.201C51.6888 30.1593 51.647 30.0939 51.647 30.0106L51.6529 30.0195Z" fill="#DD8F3A"/>
</g>
<defs>
<linearGradient id="paint0_linear_0_189" x1="3.79019" y1="21.6714" x2="18.4253" y2="21.6714" gradientUnits="userSpaceOnUse">
<stop stop-color="#51C4BE"/>
<stop offset="0.06" stop-color="#4FAAA4"/>
<stop offset="0.12" stop-color="#4E9791"/>
<stop offset="0.19" stop-color="#4D8B86"/>
<stop offset="0.25" stop-color="#4D8883"/>
<stop offset="0.67" stop-color="#2C706C"/>
</linearGradient>
<linearGradient id="paint1_linear_0_189" x1="9.0498" y1="5.76658" x2="12.9386" y2="5.76658" gradientUnits="userSpaceOnUse">
<stop stop-color="#51C4BE"/>
<stop offset="0.06" stop-color="#4FAAA4"/>
<stop offset="0.12" stop-color="#4E9791"/>
<stop offset="0.19" stop-color="#4D8B86"/>
<stop offset="0.25" stop-color="#4D8883"/>
<stop offset="0.67" stop-color="#2C706C"/>
</linearGradient>
<linearGradient id="paint2_linear_0_189" x1="11.03" y1="1.38597" x2="13.2671" y2="1.38597" gradientUnits="userSpaceOnUse">
<stop stop-color="#51C4BE"/>
<stop offset="0.06" stop-color="#4FAAA4"/>
<stop offset="0.12" stop-color="#4E9791"/>
<stop offset="0.19" stop-color="#4D8B86"/>
<stop offset="0.25" stop-color="#4D8883"/>
<stop offset="0.67" stop-color="#2C706C"/>
</linearGradient>
<linearGradient id="paint3_linear_0_189" x1="15.5623" y1="0.559789" x2="14.7863" y2="1.33909" gradientUnits="userSpaceOnUse">
<stop stop-color="#51C4BE"/>
<stop offset="0.06" stop-color="#4FAAA4"/>
<stop offset="0.12" stop-color="#4E9791"/>
<stop offset="0.19" stop-color="#4D8B86"/>
<stop offset="0.25" stop-color="#4D8883"/>
<stop offset="0.67" stop-color="#2C706C"/>
</linearGradient>
<clipPath id="clip0_0_189">
<rect width="53" height="36" fill="white"/>
</clipPath>
</defs>
</svg>
