<svg width="14" height="24" viewBox="0 0 14 24" fill="none" xmlns="http://www.w3.org/2000/svg">
<path d="M2.64944 12.0384C3.77474 13.0134 5.19404 13.5836 6.68111 13.6582C8.16817 13.7328 9.63741 13.3074 10.8546 12.4499C12.0718 11.5923 12.9669 10.352 13.3972 8.92661C13.8275 7.50121 13.7683 5.97278 13.2289 4.58497C12.6896 3.19715 11.7012 2.02983 10.4212 1.26909C9.14132 0.508343 7.64357 0.197963 6.16673 0.387423C4.6899 0.576883 3.319 1.25528 2.27255 2.31447C1.2261 3.37366 0.56435 4.75267 0.392777 6.23169C-0.200556 9.24835 -0.19389 12.8434 1.16611 16.065C2.60278 19.465 5.50111 22.3317 10.4494 23.6267C10.6088 23.67 10.7752 23.6814 10.9389 23.66C11.1027 23.6387 11.2606 23.5851 11.4035 23.5024C11.5465 23.4197 11.6716 23.3095 11.7717 23.1782C11.8718 23.0468 11.9449 22.8969 11.9867 22.7372C12.0285 22.5774 12.0383 22.411 12.0154 22.2474C11.9926 22.0839 11.9375 21.9265 11.8535 21.7843C11.7694 21.6422 11.658 21.5181 11.5258 21.4192C11.3935 21.3204 11.2429 21.2487 11.0828 21.2084C6.86444 20.1034 4.59611 17.7584 3.46944 15.0917C3.06309 14.1144 2.78738 13.0878 2.64944 12.0384Z" fill="url(#paint0_linear_0_1202)"/>
<defs>
<linearGradient id="paint0_linear_0_1202" x1="0.0169468" y1="0.333221" x2="20.3688" y2="12.2499" gradientUnits="userSpaceOnUse">
<stop stop-color="#4D8883"/>
<stop offset="1" stop-color="#2C706C"/>
</linearGradient>
</defs>
</svg>
