<svg width="15" height="24" viewBox="0 0 15 24" fill="none" xmlns="http://www.w3.org/2000/svg">
<path d="M11.3828 12.0383C10.2575 13.0133 8.83816 13.5836 7.35109 13.6581C5.86402 13.7327 4.39479 13.3073 3.17759 12.4498C1.96039 11.5923 1.06529 10.3519 0.634982 8.92655C0.204669 7.50115 0.26391 5.97272 0.803262 4.58491C1.34261 3.19709 2.33103 2.02977 3.61095 1.26903C4.89088 0.508282 6.38863 0.197902 7.86546 0.387362C9.3423 0.576822 10.7132 1.25521 11.7596 2.3144C12.8061 3.37359 13.4678 4.75261 13.6394 6.23163C14.2328 9.24829 14.2261 12.8433 12.8661 16.065C11.4294 19.465 8.53109 22.3316 3.58275 23.6266C3.4234 23.67 3.25704 23.6813 3.09328 23.66C2.92952 23.6386 2.77161 23.5851 2.62867 23.5024C2.48574 23.4197 2.36061 23.3094 2.26051 23.1781C2.16041 23.0468 2.08733 22.8969 2.04549 22.7371C2.00366 22.5774 1.99389 22.4109 2.01676 22.2474C2.03962 22.0838 2.09467 21.9264 2.17872 21.7843C2.26277 21.6421 2.37415 21.518 2.50644 21.4191C2.63872 21.3203 2.78928 21.2486 2.94942 21.2083C7.16775 20.1033 9.43609 17.7583 10.5628 15.0916C10.9691 14.1143 11.2448 13.0877 11.3828 12.0383Z" fill="url(#paint0_linear_0_1199)"/>
<defs>
<linearGradient id="paint0_linear_0_1199" x1="14.0153" y1="0.33316" x2="-6.33663" y2="12.2499" gradientUnits="userSpaceOnUse">
<stop stop-color="#4D8883"/>
<stop offset="1" stop-color="#2C706C"/>
</linearGradient>
</defs>
</svg>
