<svg width="54" height="41" viewBox="0 0 54 41" fill="none" xmlns="http://www.w3.org/2000/svg">
<path d="M11.1415 0.751934C11.5117 1.14428 11.7197 1.67612 11.7197 2.23064C11.7197 2.78515 11.5117 3.31699 11.1415 3.70934C9.06076 5.91149 7.41024 8.52585 6.28416 11.4031C5.15807 14.2804 4.57849 17.3643 4.57849 20.4786C4.57849 23.593 5.15807 26.6769 6.28416 29.5542C7.41024 32.4314 9.06076 35.0458 11.1415 37.248C11.5014 37.6428 11.7005 38.1715 11.6957 38.7201C11.691 39.2687 11.4828 39.7935 11.1161 40.1813C10.7494 40.569 10.2534 40.7889 9.73501 40.7934C9.21663 40.7979 8.71731 40.5867 8.3446 40.2054C-1.94926 29.3104 -1.94926 11.6469 8.3446 0.751934C8.7153 0.360077 9.2178 0.139976 9.74172 0.139976C10.2656 0.139976 10.7681 0.360077 11.1388 0.751934H11.1415ZM45.6239 0.751934C55.9178 11.6469 55.9178 29.3104 45.6239 40.2081C45.2492 40.5778 44.7535 40.779 44.2413 40.7694C43.7291 40.7599 43.2404 40.5403 42.8782 40.1569C42.5159 39.7735 42.3084 39.2563 42.2994 38.7142C42.2904 38.1721 42.4805 37.6474 42.8297 37.2507C44.9108 35.0485 46.5617 32.434 47.688 29.5565C48.8143 26.6789 49.394 23.5947 49.394 20.48C49.394 17.3653 48.8143 14.2812 47.688 11.4036C46.5617 8.52607 44.9108 5.91154 42.8297 3.70934C42.6355 3.51777 42.4797 3.28676 42.3716 3.03008C42.2635 2.7734 42.2054 2.49632 42.2008 2.21535C42.1961 1.93439 42.2449 1.65531 42.3443 1.39476C42.4438 1.1342 42.5918 0.897518 42.7795 0.698818C42.9673 0.500117 43.1909 0.343474 43.4371 0.238232C43.6832 0.13299 43.9469 0.0813059 44.2124 0.0862631C44.4778 0.0912204 44.7396 0.152718 44.9822 0.267085C45.2247 0.381453 45.4429 0.546348 45.6239 0.751934ZM18.5963 8.64206C18.9665 9.03441 19.1745 9.56625 19.1745 10.1208C19.1745 10.6753 18.9665 11.2071 18.5963 11.5995C17.4944 12.7654 16.6202 14.1496 16.0239 15.6731C15.4275 17.1966 15.1205 18.8296 15.1205 20.4786C15.1205 22.1277 15.4275 23.7607 16.0239 25.2842C16.6202 26.8077 17.4944 28.1919 18.5963 29.3578C18.9455 29.7545 19.1356 30.2791 19.1266 30.8212C19.1176 31.3633 18.9101 31.8806 18.5478 32.264C18.1856 32.6473 17.6969 32.8669 17.1847 32.8765C16.6725 32.8861 16.1768 32.6848 15.8021 32.3152C12.8361 29.1759 11.1699 24.9182 11.1699 20.4786C11.1699 16.0391 12.8361 11.7814 15.8021 8.64206C16.1728 8.2502 16.6753 8.0301 17.1992 8.0301C17.7231 8.0301 18.2256 8.2502 18.5963 8.64206ZM38.1691 8.64206C41.1351 11.7814 42.8013 16.0391 42.8013 20.4786C42.8013 24.9182 41.1351 29.1759 38.1691 32.3152C37.9868 32.5152 37.7688 32.6747 37.5276 32.7845C37.2864 32.8943 37.027 32.9521 36.7645 32.9547C36.502 32.9572 36.2417 32.9044 35.9986 32.7993C35.7556 32.6942 35.5348 32.5389 35.3491 32.3426C35.1634 32.1462 35.0165 31.9126 34.9169 31.6555C34.8174 31.3984 34.7673 31.1229 34.7694 30.8451C34.7716 30.5672 34.826 30.2926 34.9295 30.0373C35.033 29.7819 35.1835 29.5509 35.3723 29.3578C36.4738 28.192 37.3476 26.8079 37.9437 25.2847C38.5399 23.7614 38.8467 22.1288 38.8467 20.48C38.8467 18.8313 38.5399 17.1987 37.9437 15.6754C37.3476 14.1522 36.4738 12.7681 35.3723 11.6023C35.023 11.2056 34.8329 10.6809 34.8419 10.1388C34.851 9.59673 35.0585 9.07951 35.4207 8.69613C35.7829 8.31274 36.2716 8.09314 36.7838 8.08357C37.296 8.07401 37.7917 8.27523 38.1665 8.64485L38.1691 8.64206ZM26.9843 16.295C28.033 16.295 29.0387 16.736 29.7802 17.5208C30.5218 18.3056 30.9384 19.3701 30.9384 20.48C30.9384 21.59 30.5218 22.6544 29.7802 23.4393C29.0387 24.2241 28.033 24.665 26.9843 24.665C25.9356 24.665 24.9298 24.2241 24.1883 23.4393C23.4468 22.6544 23.0302 21.59 23.0302 20.48C23.0302 19.3701 23.4468 18.3056 24.1883 17.5208C24.9298 16.736 25.9356 16.295 26.9843 16.295Z" fill="black"/>
</svg>
