<svg width="56" height="51" viewBox="0 0 56 51" fill="none" xmlns="http://www.w3.org/2000/svg">
<path d="M36.4574 34.0457C38.64 34.0457 40.4115 35.9206 40.4115 38.2307V43.0183L40.3934 43.2766C39.693 48.3632 35.3773 50.8072 28.1357 50.8072C20.9211 50.8072 16.5355 48.3919 15.5887 43.3651L15.5571 43.0136V38.2307C15.5571 35.9206 17.3285 34.0457 19.5112 34.0457H36.4574ZM37.5736 19.6971H51.144C53.3267 19.6971 55.0982 21.572 55.0982 23.8821V28.6698L55.0801 28.928C54.3796 34.0146 50.064 36.4587 42.8223 36.4587L42.4428 36.4539C42.0944 35.1432 41.3706 33.9792 40.3711 33.1221C39.3716 32.2651 38.1455 31.7573 36.8618 31.6686L36.4574 31.6543H34.3741C35.5548 30.6466 36.5071 29.3717 37.1609 27.9232C37.8146 26.4747 38.1533 24.8895 38.152 23.2843C38.152 22.0264 37.9486 20.8211 37.5736 19.6971ZM4.82453 19.6971H18.395C18.0199 20.8211 17.8166 22.0264 17.8166 23.2843C17.8166 26.4649 19.1226 29.3274 21.1968 31.2956L21.5945 31.6543H19.5112C16.6597 31.6543 14.2556 33.687 13.5236 36.461L13.449 36.4587C6.23445 36.4587 1.84878 34.0433 0.902055 29.0165L0.870422 28.665V23.8821C0.870422 21.572 2.64186 19.6971 4.82453 19.6971ZM27.9843 14.9143C30.0817 14.9143 32.0932 15.7961 33.5762 17.3658C35.0593 18.9355 35.8925 21.0644 35.8925 23.2843C35.8925 25.5041 35.0593 27.6331 33.5762 29.2027C32.0932 30.7724 30.0817 31.6543 27.9843 31.6543C25.8869 31.6543 23.8754 30.7724 22.3923 29.2027C20.9093 27.6331 20.0761 25.5041 20.0761 23.2843C20.0761 21.0644 20.9093 18.9355 22.3923 17.3658C23.8754 15.7961 25.8869 14.9143 27.9843 14.9143ZM42.671 0.565674C44.7684 0.565674 46.7798 1.44751 48.2629 3.01719C49.746 4.58687 50.5792 6.71582 50.5792 8.93568C50.5792 11.1555 49.746 13.2845 48.2629 14.8542C46.7798 16.4238 44.7684 17.3057 42.671 17.3057C40.5736 17.3057 38.5621 16.4238 37.079 14.8542C35.5959 13.2845 34.7628 11.1555 34.7628 8.93568C34.7628 6.71582 35.5959 4.58687 37.079 3.01719C38.5621 1.44751 40.5736 0.565674 42.671 0.565674ZM13.2976 0.565674C15.395 0.565674 17.4065 1.44751 18.8896 3.01719C20.3726 4.58687 21.2058 6.71582 21.2058 8.93568C21.2058 11.1555 20.3726 13.2845 18.8896 14.8542C17.4065 16.4238 15.395 17.3057 13.2976 17.3057C11.2002 17.3057 9.18874 16.4238 7.70566 14.8542C6.22258 13.2845 5.3894 11.1555 5.3894 8.93568C5.3894 6.71582 6.22258 4.58687 7.70566 3.01719C9.18874 1.44751 11.2002 0.565674 13.2976 0.565674Z" fill="black"/>
</svg>
